M48
INCH
T58C0.020
T57C0.048
T56C0.128
T55C0.030
T54C0.028
T53C0.038
T52C0.129
%
T58
X006900Y019550
X010850Y018250
X010850Y018750
X010850Y019250
X003400Y022500
X003400Y021050
X002750Y025450
X003950Y025450
X005050Y019200
X007650Y013750
X007650Y013250
X007650Y012750
X007550Y015750
X002800Y016600
X003650Y015100
X003650Y014600
X003650Y013700
X004700Y013450
X004700Y014850
X005500Y011050
X010450Y008250
X014100Y006000
X005000Y011050
X006050Y001500
X004500Y011050
X004750Y009050
X004250Y009050
X003750Y009050
X003650Y013200
T54
X004550Y017400
X005550Y017400
X006550Y017400
X007550Y017400
X007550Y020400
X006550Y020400
X005550Y020400
X004550Y020400
T55
X013300Y018942
X005750Y007650
X006250Y006650
X006750Y007650
X007250Y006650
X007750Y007650
X008250Y006650
X016800Y019942
X016300Y018942
X015800Y019942
X015300Y018942
X014800Y019942
X014300Y018942
X013800Y019942
T53
X020050Y007050
X020050Y008050
X020050Y009050
X020050Y010650
X020050Y011650
X020050Y012650
X020050Y013650
X020050Y014650
X020050Y015650
X020050Y016650
X009500Y019400
X010850Y015050
X010850Y014050
X006700Y012050
X006700Y011050
X020050Y017650
X016650Y007050
X020050Y002050
X020050Y003050
X020050Y004050
X020050Y005050
X020050Y006050
X016650Y006050
X016650Y005050
X017650Y006050
X017650Y005050
X017650Y007050
X011000Y003850
X011000Y002850
X012000Y002850
X013000Y002850
X012000Y003850
X013000Y003850
X013000Y006500
X013000Y005500
X011000Y006500
X011000Y005500
X020050Y018650
X020050Y019650
X001050Y007050
X001050Y006050
X001050Y005050
X001050Y004050
X001050Y003050
X001050Y002050
X001050Y016050
X001050Y015050
X001050Y014050
X001050Y013050
X001050Y012050
X001050Y011050
X001050Y010050
X001050Y009050
X002600Y020400
X002600Y019400
X009500Y020400
T57
X009300Y024600
X007300Y024600
X005300Y024600
X003300Y024600
T56
X009000Y004150
X017300Y022442
X012800Y022442
X005000Y004150
T52
X020050Y021050
X014050Y001050
X003050Y001050
X001050Y021550
M30
