G04 start of page 2 for group 0 idx 0 *
G04 Title: (unknown), component *
G04 Creator: pcb 20110918 *
G04 CreationDate: Sat 02 Feb 2013 11:25:27 PM GMT UTC *
G04 For: petersen *
G04 Format: Gerber/RS-274X *
G04 PCB-Dimensions: 211000 271000 *
G04 PCB-Coordinate-Origin: lower left *
%MOIN*%
%FSLAX25Y25*%
%LNTOP*%
%ADD33C,0.0480*%
%ADD32C,0.1280*%
%ADD31C,0.0300*%
%ADD30C,0.0280*%
%ADD29C,0.0380*%
%ADD28C,0.1285*%
%ADD27C,0.0200*%
%ADD26R,0.0490X0.0490*%
%ADD25R,0.0630X0.0630*%
%ADD24R,0.0360X0.0360*%
%ADD23R,0.0512X0.0512*%
%ADD22C,0.0800*%
%ADD21C,0.1500*%
%ADD20C,0.0150*%
%ADD19C,0.0600*%
%ADD18C,0.0700*%
%ADD17C,0.0450*%
%ADD16C,0.0500*%
%ADD15C,0.0100*%
%ADD14C,0.0250*%
%ADD13C,0.0650*%
%ADD12C,0.0400*%
%ADD11C,0.0001*%
G54D11*G36*
X52500Y129000D02*X33500D01*
Y154000D01*
X52500D01*
Y129000D01*
G37*
G54D12*X95000Y204000D02*X75000D01*
X95000Y194000D02*X97500Y191500D01*
Y180500D01*
X69000Y195500D02*X71000D01*
X70000Y189500D02*X91000Y168500D01*
X71000Y195500D02*X92500Y174000D01*
X90500Y182500D02*Y177000D01*
G54D13*X158000Y199500D02*X168000D01*
G54D12*X153000Y178000D02*Y190000D01*
G54D14*X200500Y186500D02*X201500D01*
X206000Y182000D01*
G54D12*X124500Y198000D02*Y181500D01*
X117000Y174000D01*
X92500D01*
X91000Y168500D02*X143500D01*
X153000Y178000D01*
G54D15*X191000Y161500D02*X69000D01*
X189000Y158500D02*X79500D01*
X185500Y156000D02*X84000D01*
X59500Y161500D02*X74000D01*
X67000Y156000D02*X49500D01*
X45500Y160000D01*
X66000Y156000D02*X70500D01*
X53500Y161500D02*Y164000D01*
X50500Y167000D01*
X45500Y160000D02*Y174500D01*
X50500Y167000D02*Y192000D01*
X75500Y157500D02*X78500D01*
X79500Y158500D01*
X80000Y156000D02*X85000D01*
X65500Y174000D02*Y161500D01*
G54D16*X26000Y204000D02*X45500D01*
G54D12*X55500Y215000D02*Y203500D01*
G54D17*X41000Y218500D02*Y208500D01*
X45500Y204000D01*
G54D12*X62500Y197500D02*X65500Y200500D01*
Y216000D02*Y200500D01*
G54D14*Y204000D02*Y209000D01*
G54D12*X53000Y246000D02*Y228500D01*
X65500Y216000D01*
X51500Y219000D02*X55500Y215000D01*
X33000Y237500D01*
G54D13*X83500Y218000D02*Y228000D01*
X93000Y237500D01*
Y246000D01*
G54D18*X149000D01*
X158000Y237000D01*
Y199500D01*
G54D12*X148000D02*Y204500D01*
X144500Y208000D01*
X134500D01*
X124500Y198000D01*
G54D19*X96500Y219000D02*X105000D01*
X101000D02*X95000D01*
X105000D02*X108500Y215500D01*
Y182500D01*
G54D16*X34000Y225000D02*Y210500D01*
G54D12*X33000Y237500D02*Y246500D01*
G54D14*X12000Y239500D02*X18500D01*
X24500Y233500D01*
Y222500D01*
X39500Y254500D02*X23000D01*
X20000Y251500D01*
X10500D01*
Y20500D02*X111500D01*
G54D15*X113000D01*
G54D20*X115000Y22500D01*
X110000Y20500D02*X113000D01*
G54D14*X10500Y30500D02*X108000D01*
X110000Y28500D01*
X206000Y182000D02*Y16000D01*
G54D15*X195500Y43000D02*Y157000D01*
X191000Y161500D01*
X196500Y30500D02*X193000Y34000D01*
X200500Y20500D02*X196500D01*
X190500Y26500D01*
X193000Y34000D02*Y154500D01*
X190500Y26500D02*Y151000D01*
X193000Y154500D02*X189000Y158500D01*
X190500Y151000D02*X185500Y156000D01*
G54D14*X151000Y26000D02*X148500Y28500D01*
X129500D01*
X206000Y16000D02*X204000Y14000D01*
G54D15*X200500Y40500D02*X198000D01*
X195500Y43000D01*
X200500Y30500D02*X196500D01*
G54D14*X204000Y14000D02*X153500D01*
X151000Y16500D01*
Y26000D01*
X153500Y60500D02*X166500D01*
G54D20*X141000Y60000D02*X148000D01*
X127000Y49000D02*X137000D01*
X138500Y50500D01*
X167000D01*
G54D14*X120000Y38500D02*Y51500D01*
X123500Y55000D02*X130000D01*
G54D20*X115000Y37000D02*X113500Y38500D01*
X110000D01*
X125000Y47000D02*X127000Y49000D01*
G54D14*X126000Y55000D02*X120000D01*
Y73500D02*Y38500D01*
X117000Y76500D02*X120000Y73500D01*
X130000Y88000D02*Y64000D01*
G54D20*X115000Y22500D02*Y37000D01*
X125000Y21000D02*X119000Y15000D01*
G54D14*X104500Y82500D02*Y86500D01*
X105500Y87500D01*
X111000D01*
X77500Y76500D02*X117000D01*
G54D15*X72500Y66500D02*Y82000D01*
X58000Y90000D02*Y76500D01*
G54D14*X110000Y55000D02*X66000D01*
X62500Y58500D01*
Y67000D01*
G54D20*X125000Y47000D02*Y21000D01*
X119000Y15000D02*X60500D01*
G54D16*X31000Y110500D02*X54500D01*
G54D19*X31500Y120500D02*X67000D01*
G54D12*X72500Y82000D02*Y105000D01*
X67000Y110500D01*
G54D15*X58500Y95000D02*Y107500D01*
X60000Y109000D01*
G54D12*X68000Y120500D02*X93500Y95000D01*
G54D19*X10500Y90500D02*X47500D01*
X10500Y110500D02*Y100500D01*
G54D15*X77500Y153500D02*X80000Y156000D01*
X28000Y166000D02*Y164500D01*
X31000Y161500D01*
X38500D01*
X39000Y161000D01*
G54D17*X108500Y150500D02*X80500D01*
X71500Y141500D01*
X65000D01*
G54D14*X109500Y95000D02*X130500D01*
G54D12*X93500D02*X110000D01*
G54D14*X128500D02*X141500D01*
X141000Y88500D02*Y74000D01*
X144500Y70500D01*
X166500D01*
G54D12*X26000Y194000D02*X23500Y191500D01*
Y181000D01*
X30500D02*X38000D01*
G54D14*X26000Y204000D02*Y208500D01*
X24500Y210000D01*
Y216000D01*
G54D12*X38000Y181000D02*X42000Y185000D01*
Y193500D01*
X46000Y197500D01*
X62500D01*
X60500D02*Y194000D01*
X65000Y189500D01*
X70000D01*
G54D14*X8500Y174500D02*X46500D01*
G54D15*X37500Y199000D02*X13000D01*
X10500Y196500D01*
Y187000D01*
G54D19*X40000Y120500D02*X10500D01*
G54D16*Y110500D02*X39500D01*
G54D15*X60000Y109000D02*Y116500D01*
X56500Y120000D01*
G54D12*X67000Y120500D02*X68000D01*
G54D19*X76500Y127500D02*Y137500D01*
X79500Y140500D01*
X109000D01*
G54D15*X70500Y156000D02*X73000Y153500D01*
X77500D01*
G54D21*X200500Y210500D03*
G54D19*Y70500D03*
Y80500D03*
Y90500D03*
Y106500D03*
Y116500D03*
Y126500D03*
Y136500D03*
Y146500D03*
Y156500D03*
Y166500D03*
G54D11*G36*
X42500Y177000D02*Y171000D01*
X48500D01*
Y177000D01*
X42500D01*
G37*
G54D19*X55500Y174000D03*
X65500D03*
X75500D03*
X95000Y194000D03*
G54D11*G36*
X105500Y153500D02*Y147500D01*
X111500D01*
Y153500D01*
X105500D01*
G37*
G54D19*X108500Y140500D03*
G54D11*G36*
X64000Y123500D02*Y117500D01*
X70000D01*
Y123500D01*
X64000D01*
G37*
G54D19*X67000Y110500D03*
G54D18*X133000Y189425D03*
G54D21*X140500Y10500D03*
G54D19*X200500Y176500D03*
G54D11*G36*
X163500Y73500D02*Y67500D01*
X169500D01*
Y73500D01*
X163500D01*
G37*
G36*
X197500Y23500D02*Y17500D01*
X203500D01*
Y23500D01*
X197500D01*
G37*
G54D19*X200500Y30500D03*
Y40500D03*
Y50500D03*
Y60500D03*
X166500D03*
Y50500D03*
X176500Y60500D03*
Y50500D03*
Y70500D03*
G54D18*X57500Y76500D03*
X62500Y66500D03*
X67500Y76500D03*
X72500Y66500D03*
X77500Y76500D03*
X82500Y66500D03*
G54D21*X90000Y41500D03*
G54D19*X110000Y38500D03*
G54D11*G36*
X107000Y31500D02*Y25500D01*
X113000D01*
Y31500D01*
X107000D01*
G37*
G54D19*X120000Y28500D03*
X130000D03*
X120000Y38500D03*
X130000D03*
G54D11*G36*
X127000Y68000D02*Y62000D01*
X133000D01*
Y68000D01*
X127000D01*
G37*
G54D19*X130000Y55000D03*
G54D11*G36*
X107000Y68000D02*Y62000D01*
X113000D01*
Y68000D01*
X107000D01*
G37*
G54D19*X110000Y55000D03*
X200500Y186500D03*
Y196500D03*
G54D18*X168000Y199425D03*
X163000Y189425D03*
X158000Y199425D03*
X153000Y189425D03*
X148000Y199425D03*
X143000Y189425D03*
X138000Y199425D03*
G54D21*X173000Y224425D03*
X128000D03*
X30500Y10500D03*
G54D19*X10500Y70500D03*
Y60500D03*
Y50500D03*
Y40500D03*
Y30500D03*
Y20500D03*
G54D21*X50000Y41500D03*
X10500Y215500D03*
G54D11*G36*
X7500Y163500D02*Y157500D01*
X13500D01*
Y163500D01*
X7500D01*
G37*
G54D19*X10500Y150500D03*
Y140500D03*
Y130500D03*
Y120500D03*
Y110500D03*
Y100500D03*
Y90500D03*
G54D11*G36*
X23000Y207000D02*Y201000D01*
X29000D01*
Y207000D01*
X23000D01*
G37*
G54D19*X26000Y194000D03*
G54D11*G36*
X89000Y250000D02*Y242000D01*
X97000D01*
Y250000D01*
X89000D01*
G37*
G54D22*X73000Y246000D03*
G54D11*G36*
X49000Y250000D02*Y242000D01*
X57000D01*
Y250000D01*
X49000D01*
G37*
G54D22*X33000Y246000D03*
G54D19*X75500Y204000D03*
X65500D03*
X55500D03*
X45500D03*
G54D11*G36*
X92000Y207000D02*Y201000D01*
X98000D01*
Y207000D01*
X92000D01*
G37*
G54D23*X24107Y223043D02*X24893D01*
X8319Y251405D02*X10681D01*
X8319Y239595D02*X10681D01*
X24107Y215957D02*X24893D01*
X41043Y218393D02*Y217607D01*
X33957Y218393D02*Y217607D01*
X35107Y204043D02*X35893D01*
X35107Y196957D02*X35893D01*
G54D24*X96400Y219600D02*Y218400D01*
X83500Y219600D02*Y218400D01*
G54D23*X8819Y187405D02*X11181D01*
X30543Y181393D02*Y180607D01*
X23457Y181393D02*Y180607D01*
X97543Y181393D02*Y180607D01*
X90457Y181393D02*Y180607D01*
X60043Y161893D02*Y161107D01*
G54D25*X62193Y141500D02*X68492D01*
G54D23*X52957Y161893D02*Y161107D01*
X8819Y175595D02*X11181D01*
X37957Y161893D02*Y161107D01*
X45043Y161893D02*Y161107D01*
G54D26*X34700Y120500D02*X38300D01*
X34700Y110500D02*X38300D01*
G54D25*X42508Y141500D02*X48807D01*
G54D23*X109607Y87957D02*X110393D01*
X109607Y95043D02*X110393D01*
X140607Y87957D02*X141393D01*
X129607D02*X130393D01*
X154543Y60893D02*Y60107D01*
X147457Y60893D02*Y60107D01*
X140607Y95043D02*X141393D01*
X58107Y96043D02*X58893D01*
X58107Y88957D02*X58893D01*
X129607Y95043D02*X130393D01*
G54D12*X69000Y195500D03*
X108500Y182500D03*
Y187500D03*
Y192500D03*
X34000Y225000D03*
Y210500D03*
X27500Y254500D03*
X39500D03*
X50500Y192000D03*
X76500Y137500D03*
Y132500D03*
Y127500D03*
X75500Y157500D03*
X28000Y166000D03*
X36500Y151000D03*
Y146000D03*
Y137000D03*
X47000Y134500D03*
Y148500D03*
X55000Y110500D03*
X104500Y82500D03*
X141000Y60000D03*
X50000Y110500D03*
X60500Y15000D03*
X45000Y110500D03*
X47500Y90500D03*
X42500D03*
X37500D03*
X36500Y132000D03*
G54D27*G54D28*G54D29*G54D30*G54D29*G54D31*G54D28*G54D29*G54D31*G54D32*G54D29*G54D31*G54D32*G54D28*G54D29*G54D32*G54D28*G54D29*G54D33*G54D30*G54D29*M02*
