G04 start of page 8 for group -4079 idx -4079 *
G04 Title: (unknown), topsilk *
G04 Creator: pcb 20110918 *
G04 CreationDate: Sat 02 Feb 2013 11:25:27 PM GMT UTC *
G04 For: petersen *
G04 Format: Gerber/RS-274X *
G04 PCB-Dimensions: 211000 271000 *
G04 PCB-Coordinate-Origin: lower left *
%MOIN*%
%FSLAX25Y25*%
%LNTOPSILK*%
%ADD76C,0.0200*%
%ADD75C,0.0100*%
G54D75*X1000Y270000D02*X210000D01*
X173000Y233000D02*X128000D01*
X210000Y11000D02*X160000D01*
X150000Y1000D01*
X21000D02*X11000Y11000D01*
X1000D02*X11000D01*
X150000Y1000D02*X21000D01*
X89000Y101500D02*X104000D01*
Y106500D02*X89000D01*
X171500Y102000D02*X181500D01*
X173000Y104500D02*X180000D01*
X157000Y80000D02*X159500Y77500D01*
Y79500D01*
Y77500D02*X157500D01*
X103000Y20000D02*Y22000D01*
X102500D01*
X103000D02*X100500Y19500D01*
X103000Y22000D02*X101000D01*
X1000Y11000D02*Y270000D01*
X210000D02*Y11000D01*
X181500Y117000D02*Y102000D01*
X171500Y107000D02*X181500D01*
X173000Y109500D02*X180000D01*
X176500Y117000D02*Y102000D01*
X171500Y117000D02*Y102000D01*
Y117000D02*X181500D01*
X171500Y112000D02*X181500D01*
X173000Y114500D02*X180000D01*
X104000Y120000D02*X89000D01*
Y125000D02*X104000D01*
X99000D02*Y115000D01*
X94000Y125000D02*Y115000D01*
X90500Y122500D02*X97500D01*
X90500Y117500D02*X97500D01*
X89000Y115000D02*X104000D01*
X89000Y125000D02*Y115000D01*
Y111500D02*X104000D01*
X95500Y109000D02*X102500D01*
X99000Y111500D02*Y101500D01*
X94000Y111500D02*Y101500D01*
X89000Y111500D02*Y101500D01*
X95500Y104000D02*X102500D01*
X104000Y125000D02*Y115000D01*
Y111500D02*Y101500D01*
X18500Y72000D02*Y68500D01*
Y72000D02*X19000Y72500D01*
X20500D01*
X21000Y72000D01*
Y68500D01*
X18500Y70500D02*X21000D01*
X22200Y69000D02*X22700Y68500D01*
X22200Y72000D02*Y69000D01*
Y72000D02*X22700Y72500D01*
X23700D01*
X24200Y72000D01*
Y69000D01*
X23700Y68500D02*X24200Y69000D01*
X22700Y68500D02*X23700D01*
X22200Y69500D02*X24200Y71500D01*
X186000Y72500D02*Y68500D01*
X187500Y72500D02*X188000Y72000D01*
Y69000D01*
X187500Y68500D02*X188000Y69000D01*
X185500Y68500D02*X187500D01*
X185500Y72500D02*X187500D01*
X189200D02*X191200D01*
X189200D02*Y70500D01*
X189700Y71000D01*
X190700D01*
X191200Y70500D01*
Y69000D01*
X190700Y68500D02*X191200Y69000D01*
X189700Y68500D02*X190700D01*
X189200Y69000D02*X189700Y68500D01*
X186000Y82500D02*Y78500D01*
X187500Y82500D02*X188000Y82000D01*
Y79000D01*
X187500Y78500D02*X188000Y79000D01*
X185500Y78500D02*X187500D01*
X185500Y82500D02*X187500D01*
X190700D02*X191200Y82000D01*
X189700Y82500D02*X190700D01*
X189200Y82000D02*X189700Y82500D01*
X189200Y82000D02*Y79000D01*
X189700Y78500D01*
X190700Y80500D02*X191200Y80000D01*
X189200Y80500D02*X190700D01*
X189700Y78500D02*X190700D01*
X191200Y79000D01*
Y80000D02*Y79000D01*
X186000Y92500D02*Y88500D01*
X187500Y92500D02*X188000Y92000D01*
Y89000D01*
X187500Y88500D02*X188000Y89000D01*
X185500Y88500D02*X187500D01*
X185500Y92500D02*X187500D01*
X189200Y88500D02*X191700Y91000D01*
Y92500D02*Y91000D01*
X189200Y92500D02*X191700D01*
X18500Y62000D02*Y58500D01*
Y62000D02*X19000Y62500D01*
X20500D01*
X21000Y62000D01*
Y58500D01*
X18500Y60500D02*X21000D01*
X22700Y58500D02*X23700D01*
X23200Y62500D02*Y58500D01*
X22200Y61500D02*X23200Y62500D01*
X186000D02*Y58500D01*
X187500Y62500D02*X188000Y62000D01*
Y59000D01*
X187500Y58500D02*X188000Y59000D01*
X185500Y58500D02*X187500D01*
X185500Y62500D02*X187500D01*
X189200Y60500D02*X191200Y62500D01*
X189200Y60500D02*X191700D01*
X191200Y62500D02*Y58500D01*
X175500Y32500D02*X177500D01*
X176500D02*Y28500D01*
X178700Y32500D02*Y32000D01*
X181200Y29500D01*
Y28500D01*
X178700Y29500D02*Y28500D01*
Y29500D02*X181200Y32000D01*
Y32500D02*Y32000D01*
X182400Y29000D02*X185400Y32000D01*
X187100Y32500D02*Y28500D01*
X188600Y32500D02*X189100Y32000D01*
Y29000D01*
X188600Y28500D02*X189100Y29000D01*
X186600Y28500D02*X188600D01*
X186600Y32500D02*X188600D01*
X190800Y28500D02*X191800D01*
X191300Y32500D02*Y28500D01*
X190300Y31500D02*X191300Y32500D01*
X174500Y22500D02*X176500D01*
X177000Y22000D01*
Y21000D01*
X176500Y20500D02*X177000Y21000D01*
X175000Y20500D02*X176500D01*
X175000Y22500D02*Y18500D01*
Y20500D02*X177000Y18500D01*
X178200Y22500D02*Y22000D01*
X180700Y19500D01*
Y18500D01*
X178200Y19500D02*Y18500D01*
Y19500D02*X180700Y22000D01*
Y22500D02*Y22000D01*
X181900Y19000D02*X184900Y22000D01*
X186600Y22500D02*Y18500D01*
X188100Y22500D02*X188600Y22000D01*
Y19000D01*
X188100Y18500D02*X188600Y19000D01*
X186100Y18500D02*X188100D01*
X186100Y22500D02*X188100D01*
X189800Y19000D02*X190300Y18500D01*
X189800Y22000D02*Y19000D01*
Y22000D02*X190300Y22500D01*
X191300D01*
X191800Y22000D01*
Y19000D01*
X191300Y18500D02*X191800Y19000D01*
X190300Y18500D02*X191300D01*
X189800Y19500D02*X191800Y21500D01*
X186000Y42500D02*Y38500D01*
X187500Y42500D02*X188000Y42000D01*
Y39000D01*
X187500Y38500D02*X188000Y39000D01*
X185500Y38500D02*X187500D01*
X185500Y42500D02*X187500D01*
X189200Y42000D02*X189700Y42500D01*
X191200D01*
X191700Y42000D01*
Y41000D01*
X189200Y38500D02*X191700Y41000D01*
X189200Y38500D02*X191700D01*
X186000Y52500D02*Y48500D01*
X187500Y52500D02*X188000Y52000D01*
Y49000D01*
X187500Y48500D02*X188000Y49000D01*
X185500Y48500D02*X187500D01*
X185500Y52500D02*X187500D01*
X189200Y52000D02*X189700Y52500D01*
X190700D01*
X191200Y52000D01*
Y49000D01*
X190700Y48500D02*X191200Y49000D01*
X189700Y48500D02*X190700D01*
X189200Y49000D02*X189700Y48500D01*
Y50500D02*X191200D01*
X57000Y7000D02*X58000D01*
X57500D02*Y3000D01*
X57000D02*X58000D01*
X59200Y6500D02*X59700Y7000D01*
X61200D01*
X61700Y6500D01*
Y5500D01*
X59200Y3000D02*X61700Y5500D01*
X59200Y3000D02*X61700D01*
X63400D02*X64900D01*
X62900Y3500D02*X63400Y3000D01*
X62900Y6500D02*Y3500D01*
Y6500D02*X63400Y7000D01*
X64900D01*
X68400D02*Y3000D01*
X67900Y7000D02*X69900D01*
X70400Y6500D01*
Y5500D01*
X69900Y5000D02*X70400Y5500D01*
X68400Y5000D02*X69900D01*
X71600Y6500D02*Y3500D01*
Y6500D02*X72100Y7000D01*
X73100D01*
X73600Y6500D01*
Y3500D01*
X73100Y3000D02*X73600Y3500D01*
X72100Y3000D02*X73100D01*
X71600Y3500D02*X72100Y3000D01*
X74800Y7000D02*X76800D01*
X77300Y6500D01*
Y5500D01*
X76800Y5000D02*X77300Y5500D01*
X75300Y5000D02*X76800D01*
X75300Y7000D02*Y3000D01*
Y5000D02*X77300Y3000D01*
X78500Y7000D02*X80500D01*
X79500D02*Y3000D01*
X18000Y24000D02*Y20500D01*
Y24000D02*X18500Y24500D01*
X20000D01*
X20500Y24000D01*
Y20500D01*
X18000Y22500D02*X20500D01*
X21700Y24500D02*X23700D01*
X21700D02*Y22500D01*
X22200Y23000D01*
X23200D01*
X23700Y22500D01*
Y21000D01*
X23200Y20500D02*X23700Y21000D01*
X22200Y20500D02*X23200D01*
X21700Y21000D02*X22200Y20500D01*
X24900Y21000D02*X27900Y24000D01*
X31100Y24500D02*X31600Y24000D01*
X29600Y24500D02*X31100D01*
X29100Y24000D02*X29600Y24500D01*
X29100Y24000D02*Y23000D01*
X29600Y22500D01*
X31100D01*
X31600Y22000D01*
Y21000D01*
X31100Y20500D02*X31600Y21000D01*
X29600Y20500D02*X31100D01*
X29100Y21000D02*X29600Y20500D01*
X33300D02*X34800D01*
X32800Y21000D02*X33300Y20500D01*
X32800Y24000D02*Y21000D01*
Y24000D02*X33300Y24500D01*
X34800D01*
X36000D02*Y20500D01*
X38000D01*
X140000Y36000D02*X141000D01*
X140500D02*Y32000D01*
X140000D02*X141000D01*
X142200Y35500D02*X142700Y36000D01*
X144200D01*
X144700Y35500D01*
Y34500D01*
X142200Y32000D02*X144700Y34500D01*
X142200Y32000D02*X144700D01*
X146400D02*X147900D01*
X145900Y32500D02*X146400Y32000D01*
X145900Y35500D02*Y32500D01*
Y35500D02*X146400Y36000D01*
X147900D01*
X151400D02*Y32000D01*
X150900Y36000D02*X152900D01*
X153400Y35500D01*
Y34500D01*
X152900Y34000D02*X153400Y34500D01*
X151400Y34000D02*X152900D01*
X154600D02*Y32500D01*
X155100Y32000D01*
X156100D01*
X156600Y32500D01*
Y34000D02*Y32500D01*
X157800Y36000D02*Y32500D01*
X158300Y32000D01*
X159300Y36000D02*Y32500D01*
X159800Y32000D01*
X160800Y34000D02*Y32500D01*
X161300Y32000D01*
X162300D01*
X162800Y32500D01*
Y34000D02*Y32500D01*
X164500Y33500D02*Y30500D01*
X164000Y34000D02*X164500Y33500D01*
X165000Y34000D01*
X166000D01*
X166500Y33500D01*
Y32500D01*
X166000Y32000D02*X166500Y32500D01*
X165000Y32000D02*X166000D01*
X164500Y32500D02*X165000Y32000D01*
X140000Y42500D02*X141500D01*
Y39000D01*
X141000Y38500D02*X141500Y39000D01*
X140500Y38500D02*X141000D01*
X140000Y39000D02*X140500Y38500D01*
X143200Y42500D02*Y38500D01*
X142700Y42500D02*X144700D01*
X145200Y42000D01*
Y41000D01*
X144700Y40500D02*X145200Y41000D01*
X143200Y40500D02*X144700D01*
X146400Y42500D02*X148400D01*
X146400D02*Y40500D01*
X146900Y41000D01*
X147900D01*
X148400Y40500D01*
Y39000D01*
X147900Y38500D02*X148400Y39000D01*
X146900Y38500D02*X147900D01*
X146400Y39000D02*X146900Y38500D01*
X149600Y42000D02*Y38500D01*
Y42000D02*X150100Y42500D01*
X151600D01*
X152100Y42000D01*
Y38500D01*
X149600Y40500D02*X152100D01*
X153300Y39000D02*X156300Y42000D01*
X157500Y38500D02*X159500D01*
X160000Y39000D01*
Y40000D02*Y39000D01*
X159500Y40500D02*X160000Y40000D01*
X158000Y40500D02*X159500D01*
X158000Y42500D02*Y38500D01*
X157500Y42500D02*X159500D01*
X160000Y42000D01*
Y41000D01*
X159500Y40500D02*X160000Y41000D01*
X163000Y40500D02*X164500D01*
X163000Y38500D02*X165000D01*
X163000Y42500D02*Y38500D01*
Y42500D02*X165000D01*
X166700Y40000D02*Y38500D01*
Y40000D02*X167200Y40500D01*
X167700D01*
X168200Y40000D01*
Y38500D01*
X166200Y40500D02*X166700Y40000D01*
X170900Y40500D02*X171400Y40000D01*
X169900Y40500D02*X170900D01*
X169400Y40000D02*X169900Y40500D01*
X169400Y40000D02*Y39000D01*
X169900Y38500D01*
X171400Y40500D02*Y39000D01*
X171900Y38500D01*
X169900D02*X170900D01*
X171400Y39000D01*
X173100Y42500D02*Y38500D01*
Y39000D02*X173600Y38500D01*
X174600D01*
X175100Y39000D01*
Y40000D02*Y39000D01*
X174600Y40500D02*X175100Y40000D01*
X173600Y40500D02*X174600D01*
X173100Y40000D02*X173600Y40500D01*
X176300Y42500D02*Y39000D01*
X176800Y38500D01*
X178300D02*X179800D01*
X177800Y39000D02*X178300Y38500D01*
X177800Y40000D02*Y39000D01*
Y40000D02*X178300Y40500D01*
X179300D01*
X179800Y40000D01*
X177800Y39500D02*X179800D01*
Y40000D02*Y39500D01*
X20500Y112500D02*X21000Y112000D01*
X19000Y112500D02*X20500D01*
X18500Y112000D02*X19000Y112500D01*
X18500Y112000D02*Y109000D01*
X19000Y108500D01*
X20500D01*
X21000Y109000D01*
Y110000D02*Y109000D01*
X20500Y110500D02*X21000Y110000D01*
X19500Y110500D02*X20500D01*
X22200Y112500D02*Y108500D01*
Y112500D02*Y112000D01*
X24700Y109500D01*
Y112500D02*Y108500D01*
X26400Y112500D02*Y108500D01*
X27900Y112500D02*X28400Y112000D01*
Y109000D01*
X27900Y108500D02*X28400Y109000D01*
X25900Y108500D02*X27900D01*
X25900Y112500D02*X27900D01*
X20500Y102500D02*X21000Y102000D01*
X19000Y102500D02*X20500D01*
X18500Y102000D02*X19000Y102500D01*
X18500Y102000D02*Y99000D01*
X19000Y98500D01*
X20500D01*
X21000Y99000D01*
Y100000D02*Y99000D01*
X20500Y100500D02*X21000Y100000D01*
X19500Y100500D02*X20500D01*
X22200Y102500D02*Y98500D01*
Y102500D02*Y102000D01*
X24700Y99500D01*
Y102500D02*Y98500D01*
X26400Y102500D02*Y98500D01*
X27900Y102500D02*X28400Y102000D01*
Y99000D01*
X27900Y98500D02*X28400Y99000D01*
X25900Y98500D02*X27900D01*
X25900Y102500D02*X27900D01*
X18500Y92500D02*Y89500D01*
X19500Y88500D01*
X20500Y89500D01*
Y92500D02*Y89500D01*
X21700Y92500D02*X22700D01*
X22200D02*Y88500D01*
X21700D02*X22700D01*
X23900Y92500D02*Y88500D01*
Y92500D02*Y92000D01*
X26400Y89500D01*
Y92500D02*Y88500D01*
X18500Y162500D02*Y158500D01*
Y162500D02*Y162000D01*
X21000Y159500D01*
Y162500D02*Y158500D01*
X22200Y159000D02*X25200Y162000D01*
X26900Y158500D02*X28400D01*
X26400Y159000D02*X26900Y158500D01*
X26400Y162000D02*Y159000D01*
Y162000D02*X26900Y162500D01*
X28400D01*
X18500Y142500D02*X20500D01*
X21000Y142000D01*
Y141000D01*
X20500Y140500D02*X21000Y141000D01*
X19000Y140500D02*X20500D01*
X19000Y142500D02*Y138500D01*
Y140500D02*X21000Y138500D01*
X22200Y140500D02*X23700D01*
X22200Y138500D02*X24200D01*
X22200Y142500D02*Y138500D01*
Y142500D02*X24200D01*
X27400D02*X27900Y142000D01*
X25900Y142500D02*X27400D01*
X25400Y142000D02*X25900Y142500D01*
X25400Y142000D02*Y141000D01*
X25900Y140500D01*
X27400D01*
X27900Y140000D01*
Y139000D01*
X27400Y138500D02*X27900Y139000D01*
X25900Y138500D02*X27400D01*
X25400Y139000D02*X25900Y138500D01*
X29100Y140500D02*X30600D01*
X29100Y138500D02*X31100D01*
X29100Y142500D02*Y138500D01*
Y142500D02*X31100D01*
X32300D02*X34300D01*
X33300D02*Y138500D01*
X18500Y152500D02*X19500D01*
X19000D02*Y148500D01*
X18500D02*X19500D01*
X20700Y152000D02*Y149000D01*
Y152000D02*X21200Y152500D01*
X22200D01*
X22700Y152000D01*
Y149000D01*
X22200Y148500D02*X22700Y149000D01*
X21200Y148500D02*X22200D01*
X20700Y149000D02*X21200Y148500D01*
X23900Y152500D02*X25900D01*
X26400Y152000D01*
Y151000D01*
X25900Y150500D02*X26400Y151000D01*
X24400Y150500D02*X25900D01*
X24400Y152500D02*Y148500D01*
Y150500D02*X26400Y148500D01*
X27600Y150500D02*X29100D01*
X27600Y148500D02*X29600D01*
X27600Y152500D02*Y148500D01*
Y152500D02*X29600D01*
X30800D02*Y148500D01*
Y152500D02*X32800D01*
X30800Y150500D02*X32300D01*
X18500Y132000D02*X19000Y132500D01*
X20000D01*
X20500Y132000D01*
Y129000D01*
X20000Y128500D02*X20500Y129000D01*
X19000Y128500D02*X20000D01*
X18500Y129000D02*X19000Y128500D01*
Y130500D02*X20500D01*
X21700Y128500D02*X22200D01*
X23400Y132000D02*X23900Y132500D01*
X24900D01*
X25400Y132000D01*
Y129000D01*
X24900Y128500D02*X25400Y129000D01*
X23900Y128500D02*X24900D01*
X23400Y129000D02*X23900Y128500D01*
Y130500D02*X25400D01*
X26600Y132500D02*Y129500D01*
X27600Y128500D01*
X28600Y129500D01*
Y132500D02*Y129500D01*
X18500Y122500D02*X20500D01*
X18500D02*Y120500D01*
X19000Y121000D01*
X20000D01*
X20500Y120500D01*
Y119000D01*
X20000Y118500D02*X20500Y119000D01*
X19000Y118500D02*X20000D01*
X18500Y119000D02*X19000Y118500D01*
X21700Y122500D02*Y119500D01*
X22700Y118500D01*
X23700Y119500D01*
Y122500D02*Y119500D01*
X18500Y52000D02*Y48500D01*
Y52000D02*X19000Y52500D01*
X20500D01*
X21000Y52000D01*
Y48500D01*
X18500Y50500D02*X21000D01*
X22200Y52000D02*X22700Y52500D01*
X24200D01*
X24700Y52000D01*
Y51000D01*
X22200Y48500D02*X24700Y51000D01*
X22200Y48500D02*X24700D01*
X18500Y42000D02*Y38500D01*
Y42000D02*X19000Y42500D01*
X20500D01*
X21000Y42000D01*
Y38500D01*
X18500Y40500D02*X21000D01*
X22200Y42000D02*X22700Y42500D01*
X23700D01*
X24200Y42000D01*
Y39000D01*
X23700Y38500D02*X24200Y39000D01*
X22700Y38500D02*X23700D01*
X22200Y39000D02*X22700Y38500D01*
Y40500D02*X24200D01*
X18500Y32000D02*Y28500D01*
Y32000D02*X19000Y32500D01*
X20500D01*
X21000Y32000D01*
Y28500D01*
X18500Y30500D02*X21000D01*
X22200D02*X24200Y32500D01*
X22200Y30500D02*X24700D01*
X24200Y32500D02*Y28500D01*
X25900Y29000D02*X28900Y32000D01*
X32100Y32500D02*X32600Y32000D01*
X30600Y32500D02*X32100D01*
X30100Y32000D02*X30600Y32500D01*
X30100Y32000D02*Y31000D01*
X30600Y30500D01*
X32100D01*
X32600Y30000D01*
Y29000D01*
X32100Y28500D02*X32600Y29000D01*
X30600Y28500D02*X32100D01*
X30100Y29000D02*X30600Y28500D01*
X34300Y32500D02*Y28500D01*
X35800Y32500D02*X36300Y32000D01*
Y29000D01*
X35800Y28500D02*X36300Y29000D01*
X33800Y28500D02*X35800D01*
X33800Y32500D02*X35800D01*
X37500Y32000D02*Y28500D01*
Y32000D02*X38000Y32500D01*
X39500D01*
X40000Y32000D01*
Y28500D01*
X37500Y30500D02*X40000D01*
X5500Y266500D02*X9500D01*
Y267000D02*Y265000D01*
X9000Y264500D01*
X8000D02*X9000D01*
X7500Y265000D02*X8000Y264500D01*
X7500Y266500D02*Y265000D01*
X5500Y263300D02*X9500D01*
X5500D02*X7000Y261800D01*
X5500Y260300D01*
X9500D01*
Y259100D02*Y257100D01*
X9000Y256600D01*
X8000D02*X9000D01*
X7500Y257100D02*X8000Y256600D01*
X7500Y258600D02*Y257100D01*
X5500Y258600D02*X9500D01*
X7500D02*X5500Y256600D01*
X32500Y265500D02*X34500D01*
X32500D02*X32000Y265000D01*
Y264000D01*
X32500Y263500D02*X32000Y264000D01*
X32500Y263500D02*X34000D01*
Y265500D02*Y261500D01*
X32500D02*X34500D01*
X32500D02*X32000Y262000D01*
Y263000D02*Y262000D01*
X32500Y263500D02*X32000Y263000D01*
X5500Y202000D02*X9500D01*
Y202500D02*Y200500D01*
X9000Y200000D01*
X8000D02*X9000D01*
X7500Y200500D02*X8000Y200000D01*
X7500Y202000D02*Y200500D01*
X5500Y198800D02*X9500D01*
X7500D02*X9500Y196800D01*
X7500Y198800D02*X5500Y196800D01*
X9500Y195600D02*Y193600D01*
X5500Y194600D02*X9500D01*
X186000Y118500D02*Y114500D01*
X187500Y118500D02*X188000Y118000D01*
Y115000D01*
X187500Y114500D02*X188000Y115000D01*
X185500Y114500D02*X187500D01*
X185500Y118500D02*X187500D01*
X189200Y114500D02*X191200Y116500D01*
Y118000D02*Y116500D01*
X190700Y118500D02*X191200Y118000D01*
X189700Y118500D02*X190700D01*
X189200Y118000D02*X189700Y118500D01*
X189200Y118000D02*Y117000D01*
X189700Y116500D01*
X191200D01*
X186000Y108500D02*Y104500D01*
X187500Y108500D02*X188000Y108000D01*
Y105000D01*
X187500Y104500D02*X188000Y105000D01*
X185500Y104500D02*X187500D01*
X185500Y108500D02*X187500D01*
X189200Y105000D02*X189700Y104500D01*
X189200Y106000D02*Y105000D01*
Y106000D02*X189700Y106500D01*
X190700D01*
X191200Y106000D01*
Y105000D01*
X190700Y104500D02*X191200Y105000D01*
X189700Y104500D02*X190700D01*
X189200Y107000D02*X189700Y106500D01*
X189200Y108000D02*Y107000D01*
Y108000D02*X189700Y108500D01*
X190700D01*
X191200Y108000D01*
Y107000D01*
X190700Y106500D02*X191200Y107000D01*
X184000Y128500D02*Y124500D01*
X185500Y128500D02*X186000Y128000D01*
Y125000D01*
X185500Y124500D02*X186000Y125000D01*
X183500Y124500D02*X185500D01*
X183500Y128500D02*X185500D01*
X187700Y124500D02*X188700D01*
X188200Y128500D02*Y124500D01*
X187200Y127500D02*X188200Y128500D01*
X189900Y125000D02*X190400Y124500D01*
X189900Y128000D02*Y125000D01*
Y128000D02*X190400Y128500D01*
X191400D01*
X191900Y128000D01*
Y125000D01*
X191400Y124500D02*X191900Y125000D01*
X190400Y124500D02*X191400D01*
X189900Y125500D02*X191900Y127500D01*
X184000Y138500D02*Y134500D01*
X185500Y138500D02*X186000Y138000D01*
Y135000D01*
X185500Y134500D02*X186000Y135000D01*
X183500Y134500D02*X185500D01*
X183500Y138500D02*X185500D01*
X187700Y134500D02*X188700D01*
X188200Y138500D02*Y134500D01*
X187200Y137500D02*X188200Y138500D01*
X190400Y134500D02*X191400D01*
X190900Y138500D02*Y134500D01*
X189900Y137500D02*X190900Y138500D01*
X184000Y148500D02*Y144500D01*
X185500Y148500D02*X186000Y148000D01*
Y145000D01*
X185500Y144500D02*X186000Y145000D01*
X183500Y144500D02*X185500D01*
X183500Y148500D02*X185500D01*
X187700Y144500D02*X188700D01*
X188200Y148500D02*Y144500D01*
X187200Y147500D02*X188200Y148500D01*
X189900Y148000D02*X190400Y148500D01*
X191900D01*
X192400Y148000D01*
Y147000D01*
X189900Y144500D02*X192400Y147000D01*
X189900Y144500D02*X192400D01*
X184000Y158500D02*Y154500D01*
X185500Y158500D02*X186000Y158000D01*
Y155000D01*
X185500Y154500D02*X186000Y155000D01*
X183500Y154500D02*X185500D01*
X183500Y158500D02*X185500D01*
X187700Y154500D02*X188700D01*
X188200Y158500D02*Y154500D01*
X187200Y157500D02*X188200Y158500D01*
X189900Y158000D02*X190400Y158500D01*
X191400D01*
X191900Y158000D01*
Y155000D01*
X191400Y154500D02*X191900Y155000D01*
X190400Y154500D02*X191400D01*
X189900Y155000D02*X190400Y154500D01*
Y156500D02*X191900D01*
X184500Y168500D02*X185000Y168000D01*
X183000Y168500D02*X184500D01*
X182500Y168000D02*X183000Y168500D01*
X182500Y168000D02*Y165000D01*
X183000Y164500D01*
X184500D01*
X185000Y165000D01*
Y166000D02*Y165000D01*
X184500Y166500D02*X185000Y166000D01*
X183500Y166500D02*X184500D01*
X186200Y168500D02*Y164500D01*
Y168500D02*Y168000D01*
X188700Y165500D01*
Y168500D02*Y164500D01*
X190400Y168500D02*Y164500D01*
X191900Y168500D02*X192400Y168000D01*
Y165000D01*
X191900Y164500D02*X192400Y165000D01*
X189900Y164500D02*X191900D01*
X189900Y168500D02*X191900D01*
X185500Y198500D02*X186000Y198000D01*
X184000Y198500D02*X185500D01*
X183500Y198000D02*X184000Y198500D01*
X183500Y198000D02*Y197000D01*
X184000Y196500D01*
X185500D01*
X186000Y196000D01*
Y195000D01*
X185500Y194500D02*X186000Y195000D01*
X184000Y194500D02*X185500D01*
X183500Y195000D02*X184000Y194500D01*
X187700D02*X189200D01*
X187200Y195000D02*X187700Y194500D01*
X187200Y198000D02*Y195000D01*
Y198000D02*X187700Y198500D01*
X189200D01*
X190400D02*Y194500D01*
X192400D01*
X184500Y188500D02*X185000Y188000D01*
X183000Y188500D02*X184500D01*
X182500Y188000D02*X183000Y188500D01*
X182500Y188000D02*Y187000D01*
X183000Y186500D01*
X184500D01*
X185000Y186000D01*
Y185000D01*
X184500Y184500D02*X185000Y185000D01*
X183000Y184500D02*X184500D01*
X182500Y185000D02*X183000Y184500D01*
X186700Y188500D02*Y184500D01*
X188200Y188500D02*X188700Y188000D01*
Y185000D01*
X188200Y184500D02*X188700Y185000D01*
X186200Y184500D02*X188200D01*
X186200Y188500D02*X188200D01*
X189900Y188000D02*Y184500D01*
Y188000D02*X190400Y188500D01*
X191900D01*
X192400Y188000D01*
Y184500D01*
X189900Y186500D02*X192400D01*
X180500Y178000D02*Y174500D01*
Y178000D02*X181000Y178500D01*
X182500D01*
X183000Y178000D01*
Y174500D01*
X180500Y176500D02*X183000D01*
X184200Y178500D02*X186200D01*
X186700Y178000D01*
Y177000D01*
X186200Y176500D02*X186700Y177000D01*
X184700Y176500D02*X186200D01*
X184700Y178500D02*Y174500D01*
Y176500D02*X186700Y174500D01*
X187900Y176500D02*X189400D01*
X187900Y174500D02*X189900D01*
X187900Y178500D02*Y174500D01*
Y178500D02*X189900D01*
X191100D02*Y174500D01*
Y178500D02*X193100D01*
X191100Y176500D02*X192600D01*
X155000Y264000D02*Y260000D01*
X153500Y261500D01*
X152000Y260000D01*
Y264000D02*Y260000D01*
X148800D02*X150800D01*
X148800D02*X148300Y260500D01*
Y261500D02*Y260500D01*
X148800Y262000D02*X148300Y261500D01*
X148800Y262000D02*X150300D01*
Y264000D02*Y260000D01*
Y262000D02*X148300Y264000D01*
X145100D02*X147100D01*
X145100D02*X144600Y263500D01*
Y262500D01*
X145100Y262000D02*X144600Y262500D01*
X145100Y262000D02*X146600D01*
Y264000D02*Y260000D01*
X145100D02*X147100D01*
X145100D02*X144600Y260500D01*
Y261500D02*Y260500D01*
X145100Y262000D02*X144600Y261500D01*
X143400Y263500D02*Y260000D01*
Y263500D02*X142900Y264000D01*
X141900D02*X142900D01*
X141900D02*X141400Y263500D01*
Y260000D01*
X138200D02*X137700Y260500D01*
X138200Y260000D02*X139700D01*
X140200Y260500D02*X139700Y260000D01*
X140200Y261500D02*Y260500D01*
Y261500D02*X139700Y262000D01*
X138200D02*X139700D01*
X138200D02*X137700Y262500D01*
Y263500D02*Y262500D01*
X138200Y264000D02*X137700Y263500D01*
X138200Y264000D02*X139700D01*
X140200Y263500D02*X139700Y264000D01*
X95000Y264500D02*Y261500D01*
Y264500D02*X94000Y265500D01*
X93000Y264500D01*
Y261500D01*
X89800Y263500D02*X91800D01*
X90800Y264500D02*Y262500D01*
X76500Y261500D02*X76000Y262000D01*
X76500Y261500D02*X78000D01*
X78500Y262000D02*X78000Y261500D01*
X78500Y265000D02*Y262000D01*
Y265000D02*X78000Y265500D01*
X76500D02*X78000D01*
X76500D02*X76000Y265000D01*
Y264000D01*
X76500Y263500D02*X76000Y264000D01*
X76500Y263500D02*X77500D01*
X74800Y265500D02*Y261500D01*
Y262000D02*Y261500D01*
Y262000D02*X72300Y264500D01*
Y265500D02*Y261500D01*
X70600Y265500D02*Y261500D01*
X69100D02*X68600Y262000D01*
Y265000D02*Y262000D01*
X69100Y265500D02*X68600Y265000D01*
X69100Y265500D02*X71100D01*
X69100Y261500D02*X71100D01*
X54500Y265500D02*Y262000D01*
X54000Y261500D01*
X52500D02*X54000D01*
X52500D02*X52000Y262000D01*
Y265500D02*Y262000D01*
Y263500D02*X54500D01*
X117000Y259500D02*Y258000D01*
X113500D02*X117000D01*
X113000Y258500D02*X113500Y258000D01*
X113000Y259000D02*Y258500D01*
X113500Y259500D02*X113000Y259000D01*
Y256300D02*X117000D01*
Y256800D02*Y254800D01*
X116500Y254300D01*
X115500D02*X116500D01*
X115000Y254800D02*X115500Y254300D01*
X115000Y256300D02*Y254800D01*
X116500Y253100D02*X117000Y252600D01*
Y251100D01*
X116500Y250600D01*
X115500D02*X116500D01*
X113000Y253100D02*X115500Y250600D01*
X113000Y253100D02*Y250600D01*
X113500Y249400D02*X116500Y246400D01*
Y245200D02*X117000Y244700D01*
Y243700D01*
X116500Y243200D01*
X113500D02*X116500D01*
X113000Y243700D02*X113500Y243200D01*
X113000Y244700D02*Y243700D01*
X113500Y245200D02*X113000Y244700D01*
X115000D02*Y243200D01*
Y240200D02*Y238200D01*
X113000Y235200D02*X117000D01*
X115500Y233700D01*
X117000Y232200D01*
X113000D02*X117000D01*
Y231000D02*Y229000D01*
X116500Y228500D01*
X115500D02*X116500D01*
X115000Y229000D02*X115500Y228500D01*
X115000Y230500D02*Y229000D01*
X113000Y230500D02*X117000D01*
X115000D02*X113000Y228500D01*
Y227300D02*Y225300D01*
X113500Y224800D01*
X114500D01*
X115000Y225300D02*X114500Y224800D01*
X115000Y226800D02*Y225300D01*
X113000Y226800D02*X117000D01*
Y227300D02*Y225300D01*
X116500Y224800D01*
X115500D02*X116500D01*
X115000Y225300D02*X115500Y224800D01*
X113500Y223600D02*X115000D01*
X113500D02*X113000Y223100D01*
Y222100D01*
X113500Y221600D01*
X115000D01*
X113000Y219900D02*Y218400D01*
X113500Y217900D01*
X114000Y218400D02*X113500Y217900D01*
X114000Y219900D02*Y218400D01*
X114500Y220400D02*X114000Y219900D01*
X114500Y220400D02*X115000Y219900D01*
Y218400D01*
X114500Y217900D01*
X113500Y220400D02*X113000Y219900D01*
X117000Y214900D02*Y212900D01*
X113000Y213900D02*X117000D01*
X113000Y211200D02*Y209700D01*
X113500Y211700D02*X113000Y211200D01*
X113500Y211700D02*X114500D01*
X115000Y211200D01*
Y210200D01*
X114500Y209700D01*
X114000Y211700D02*Y209700D01*
X114500D01*
X113000Y208000D02*X114500D01*
X115000Y207500D01*
Y206500D01*
Y208500D02*X114500Y208000D01*
X113000Y204800D02*X114500D01*
X115000Y204300D01*
Y203800D01*
X114500Y203300D01*
X113000D02*X114500D01*
X115000Y202800D01*
Y202300D01*
X114500Y201800D01*
X113000D02*X114500D01*
X115000Y205300D02*X114500Y204800D01*
X115500Y200600D02*X116000D01*
X113000D02*X114500D01*
X113000Y199100D02*X114500D01*
X115000Y198600D01*
Y198100D01*
X114500Y197600D01*
X113000D02*X114500D01*
X115000Y199600D02*X114500Y199100D01*
X115000Y194900D02*X114500Y194400D01*
X115000Y195900D02*Y194900D01*
X114500Y196400D02*X115000Y195900D01*
X113500Y196400D02*X114500D01*
X113500D02*X113000Y195900D01*
X113500Y194400D02*X115000D01*
X113500D02*X113000Y193900D01*
Y195900D02*Y194900D01*
X113500Y194400D01*
Y192200D02*X117000D01*
X113500D02*X113000Y191700D01*
X115500Y192700D02*Y191700D01*
Y190700D02*X116000D01*
X113000D02*X114500D01*
X113500Y189700D02*X114500D01*
X115000Y189200D01*
Y188200D01*
X114500Y187700D01*
X113500D02*X114500D01*
X113000Y188200D02*X113500Y187700D01*
X113000Y189200D02*Y188200D01*
X113500Y189700D02*X113000Y189200D01*
Y186000D02*X114500D01*
X115000Y185500D01*
Y185000D01*
X114500Y184500D01*
X113000D02*X114500D01*
X115000Y186500D02*X114500Y186000D01*
X82500Y124500D02*Y123000D01*
X80500Y124500D02*Y122500D01*
Y124500D02*X84500D01*
Y122500D01*
X80500Y120800D02*X82000D01*
X82500Y120300D01*
Y119800D01*
X82000Y119300D01*
X80500D02*X82000D01*
X82500Y121300D02*X82000Y120800D01*
X82500Y116600D02*X82000Y116100D01*
X82500Y117600D02*Y116600D01*
X82000Y118100D02*X82500Y117600D01*
X81000Y118100D02*X82000D01*
X81000D02*X80500Y117600D01*
X81000Y116100D02*X82500D01*
X81000D02*X80500Y115600D01*
Y117600D02*Y116600D01*
X81000Y116100D01*
X80500Y114400D02*X84500D01*
X81000D02*X80500Y113900D01*
Y112900D01*
X81000Y112400D01*
X82000D01*
X82500Y112900D02*X82000Y112400D01*
X82500Y113900D02*Y112900D01*
X82000Y114400D02*X82500Y113900D01*
X81000Y111200D02*X84500D01*
X81000D02*X80500Y110700D01*
Y109200D02*Y107700D01*
X81000Y109700D02*X80500Y109200D01*
X81000Y109700D02*X82000D01*
X82500Y109200D01*
Y108200D01*
X82000Y107700D01*
X81500Y109700D02*Y107700D01*
X82000D01*
X84500Y104700D02*Y103700D01*
X80500Y104200D02*X84500D01*
X80500Y104700D02*Y103700D01*
X84000Y102500D02*X84500Y102000D01*
Y100500D01*
X84000Y100000D01*
X83000D02*X84000D01*
X80500Y102500D02*X83000Y100000D01*
X80500Y102500D02*Y100000D01*
Y98300D02*Y96800D01*
X81000Y98800D02*X80500Y98300D01*
X81000Y98800D02*X84000D01*
X84500Y98300D01*
Y96800D01*
X80500Y93300D02*X84500D01*
Y93800D02*Y91800D01*
X84000Y91300D01*
X83000D02*X84000D01*
X82500Y91800D02*X83000Y91300D01*
X82500Y93300D02*Y91800D01*
X81000Y90100D02*X82500D01*
X81000D02*X80500Y89600D01*
Y89100D01*
X81000Y88600D01*
X82500D01*
X81000D02*X80500Y88100D01*
Y87600D01*
X81000Y87100D01*
X82500D01*
X80500Y85400D02*X82000D01*
X82500Y84900D01*
Y83900D01*
Y85900D02*X82000Y85400D01*
X106000Y125500D02*X107000D01*
X106500D02*Y121500D01*
X106000D02*X107000D01*
X108200Y125000D02*X108700Y125500D01*
X110200D01*
X110700Y125000D01*
Y124000D01*
X108200Y121500D02*X110700Y124000D01*
X108200Y121500D02*X110700D01*
X112400D02*X113900D01*
X111900Y122000D02*X112400Y121500D01*
X111900Y125000D02*Y122000D01*
Y125000D02*X112400Y125500D01*
X113900D01*
X116900Y123000D02*Y122000D01*
Y123000D02*X117400Y123500D01*
X118400D01*
X118900Y123000D01*
Y122000D01*
X118400Y121500D02*X118900Y122000D01*
X117400Y121500D02*X118400D01*
X116900Y122000D02*X117400Y121500D01*
X120600Y123000D02*Y121500D01*
Y123000D02*X121100Y123500D01*
X121600D01*
X122100Y123000D01*
Y121500D01*
X120100Y123500D02*X120600Y123000D01*
X106000Y119000D02*Y115500D01*
Y119000D02*X106500Y119500D01*
X108000D01*
X108500Y119000D01*
Y115500D01*
X106000Y117500D02*X108500D01*
X109700D02*X111700Y119500D01*
X109700Y117500D02*X112200D01*
X111700Y119500D02*Y115500D01*
X113400Y116000D02*X116400Y119000D01*
X117600D02*Y115500D01*
Y119000D02*X118100Y119500D01*
X119600D01*
X120100Y119000D01*
Y115500D01*
X117600Y117500D02*X120100D01*
X121300Y119500D02*X123300D01*
X121300D02*Y117500D01*
X121800Y118000D01*
X122800D01*
X123300Y117500D01*
Y116000D01*
X122800Y115500D02*X123300Y116000D01*
X121800Y115500D02*X122800D01*
X121300Y116000D02*X121800Y115500D01*
X106000Y111500D02*X107000D01*
X106500D02*Y107500D01*
X106000D02*X107000D01*
X108200Y111000D02*X108700Y111500D01*
X110200D01*
X110700Y111000D01*
Y110000D01*
X108200Y107500D02*X110700Y110000D01*
X108200Y107500D02*X110700D01*
X112400D02*X113900D01*
X111900Y108000D02*X112400Y107500D01*
X111900Y111000D02*Y108000D01*
Y111000D02*X112400Y111500D01*
X113900D01*
X116900Y109000D02*Y108000D01*
Y109000D02*X117400Y109500D01*
X118400D01*
X118900Y109000D01*
Y108000D01*
X118400Y107500D02*X118900Y108000D01*
X117400Y107500D02*X118400D01*
X116900Y108000D02*X117400Y107500D01*
X120600Y109000D02*Y107500D01*
Y109000D02*X121100Y109500D01*
X121600D01*
X122100Y109000D01*
Y107500D01*
X120100Y109500D02*X120600Y109000D01*
X108000Y105500D02*X108500Y105000D01*
X106500Y105500D02*X108000D01*
X106000Y105000D02*X106500Y105500D01*
X106000Y105000D02*Y104000D01*
X106500Y103500D01*
X108000D01*
X108500Y103000D01*
Y102000D01*
X108000Y101500D02*X108500Y102000D01*
X106500Y101500D02*X108000D01*
X106000Y102000D02*X106500Y101500D01*
X110200Y105500D02*Y101500D01*
X111700Y105500D02*X112200Y105000D01*
Y102000D01*
X111700Y101500D02*X112200Y102000D01*
X109700Y101500D02*X111700D01*
X109700Y105500D02*X111700D01*
X113400Y105000D02*Y101500D01*
Y105000D02*X113900Y105500D01*
X115400D01*
X115900Y105000D01*
Y101500D01*
X113400Y103500D02*X115900D01*
X117100Y102000D02*X120100Y105000D01*
X123300Y105500D02*X123800Y105000D01*
X121800Y105500D02*X123300D01*
X121300Y105000D02*X121800Y105500D01*
X121300Y105000D02*Y104000D01*
X121800Y103500D01*
X123300D01*
X123800Y103000D01*
Y102000D01*
X123300Y101500D02*X123800Y102000D01*
X121800Y101500D02*X123300D01*
X121300Y102000D02*X121800Y101500D01*
X125500D02*X127000D01*
X125000Y102000D02*X125500Y101500D01*
X125000Y105000D02*Y102000D01*
Y105000D02*X125500Y105500D01*
X127000D01*
X128200D02*Y101500D01*
X130200D01*
X91000Y132500D02*X92500D01*
Y129000D01*
X92000Y128500D02*X92500Y129000D01*
X91500Y128500D02*X92000D01*
X91000Y129000D02*X91500Y128500D01*
X94200Y132500D02*Y128500D01*
X93700Y132500D02*X95700D01*
X96200Y132000D01*
Y131000D01*
X95700Y130500D02*X96200Y131000D01*
X94200Y130500D02*X95700D01*
X98900Y132500D02*X99400Y132000D01*
X97900Y132500D02*X98900D01*
X97400Y132000D02*X97900Y132500D01*
X97400Y132000D02*Y129000D01*
X97900Y128500D01*
X98900Y130500D02*X99400Y130000D01*
X97400Y130500D02*X98900D01*
X97900Y128500D02*X98900D01*
X99400Y129000D01*
Y130000D02*Y129000D01*
X102400Y132500D02*Y129000D01*
X102900Y128500D01*
X103900D01*
X104400Y129000D01*
Y132500D02*Y129000D01*
X106100Y128500D02*X107600D01*
X108100Y129000D01*
X107600Y129500D02*X108100Y129000D01*
X106100Y129500D02*X107600D01*
X105600Y130000D02*X106100Y129500D01*
X105600Y130000D02*X106100Y130500D01*
X107600D01*
X108100Y130000D01*
X105600Y129000D02*X106100Y128500D01*
X110800Y130500D02*X111300Y130000D01*
X109800Y130500D02*X110800D01*
X109300Y130000D02*X109800Y130500D01*
X109300Y130000D02*Y129000D01*
X109800Y128500D01*
X111300Y130500D02*Y129000D01*
X111800Y128500D01*
X109800D02*X110800D01*
X111300Y129000D01*
X114500Y130500D02*X115000Y130000D01*
X113500Y130500D02*X114500D01*
X113000Y130000D02*X113500Y130500D01*
X113000Y130000D02*Y129000D01*
X113500Y128500D01*
X114500D01*
X115000Y129000D01*
X113000Y127500D02*X113500Y127000D01*
X114500D01*
X115000Y127500D01*
Y130500D02*Y127500D01*
X116700Y128500D02*X118200D01*
X116200Y129000D02*X116700Y128500D01*
X116200Y130000D02*Y129000D01*
Y130000D02*X116700Y130500D01*
X117700D01*
X118200Y130000D01*
X116200Y129500D02*X118200D01*
Y130000D02*Y129500D01*
X119400Y131000D02*X119900D01*
X119400Y130000D02*X119900D01*
X140000Y108000D02*X143000Y111000D01*
X144200Y111500D02*X146200D01*
X146700Y111000D01*
Y110000D01*
X146200Y109500D02*X146700Y110000D01*
X144700Y109500D02*X146200D01*
X144700Y111500D02*Y107500D01*
Y109500D02*X146700Y107500D01*
X149900Y111500D02*X150400Y111000D01*
X148400Y111500D02*X149900D01*
X147900Y111000D02*X148400Y111500D01*
X147900Y111000D02*Y110000D01*
X148400Y109500D01*
X149900D01*
X150400Y109000D01*
Y108000D01*
X149900Y107500D02*X150400Y108000D01*
X148400Y107500D02*X149900D01*
X147900Y108000D02*X148400Y107500D01*
X151600Y111500D02*X153600D01*
X152600D02*Y107500D01*
X157100Y111500D02*Y108000D01*
X157600Y107500D01*
X156600Y110000D02*X157600D01*
X158600Y109000D02*Y108000D01*
Y109000D02*X159100Y109500D01*
X160100D01*
X160600Y109000D01*
Y108000D01*
X160100Y107500D02*X160600Y108000D01*
X159100Y107500D02*X160100D01*
X158600Y108000D02*X159100Y107500D01*
X164100Y111500D02*Y107500D01*
X165600Y111500D02*X166100Y111000D01*
Y108000D01*
X165600Y107500D02*X166100Y108000D01*
X163600Y107500D02*X165600D01*
X163600Y111500D02*X165600D01*
X167300Y109500D02*X169300Y111500D01*
X167300Y109500D02*X169800D01*
X169300Y111500D02*Y107500D01*
X142000Y114000D02*X145000Y117000D01*
X146200Y117500D02*X147200D01*
X146700D02*Y113500D01*
X146200D02*X147200D01*
X148400Y117500D02*X150400D01*
X150900Y117000D01*
Y116000D01*
X150400Y115500D02*X150900Y116000D01*
X148900Y115500D02*X150400D01*
X148900Y117500D02*Y113500D01*
Y115500D02*X150900Y113500D01*
X152100Y117000D02*Y114000D01*
Y117000D02*X152600Y117500D01*
X153600D01*
X154100Y117000D01*
Y114000D01*
X153600Y113500D02*X154100Y114000D01*
X152600Y113500D02*X153600D01*
X152100Y114000D02*X152600Y113500D01*
X153100Y114500D02*X154100Y113500D01*
X157600Y117500D02*Y114000D01*
X158100Y113500D01*
X157100Y116000D02*X158100D01*
X159100Y115000D02*Y114000D01*
Y115000D02*X159600Y115500D01*
X160600D01*
X161100Y115000D01*
Y114000D01*
X160600Y113500D02*X161100Y114000D01*
X159600Y113500D02*X160600D01*
X159100Y114000D02*X159600Y113500D01*
X164600Y117500D02*Y113500D01*
X166100Y117500D02*X166600Y117000D01*
Y114000D01*
X166100Y113500D02*X166600Y114000D01*
X164100Y113500D02*X166100D01*
X164100Y117500D02*X166100D01*
X167800D02*X169800D01*
X167800D02*Y115500D01*
X168300Y116000D01*
X169300D01*
X169800Y115500D01*
Y114000D01*
X169300Y113500D02*X169800Y114000D01*
X168300Y113500D02*X169300D01*
X167800Y114000D02*X168300Y113500D01*
X148000Y124500D02*X149500D01*
Y121000D01*
X149000Y120500D02*X149500Y121000D01*
X148500Y120500D02*X149000D01*
X148000Y121000D02*X148500Y120500D01*
X151200Y124500D02*Y120500D01*
X150700Y124500D02*X152700D01*
X153200Y124000D01*
Y123000D01*
X152700Y122500D02*X153200Y123000D01*
X151200Y122500D02*X152700D01*
X154400D02*X156400Y124500D01*
X154400Y122500D02*X156900D01*
X156400Y124500D02*Y120500D01*
X159900Y124500D02*Y121000D01*
X160400Y120500D01*
X161400D01*
X161900Y121000D01*
Y124500D02*Y121000D01*
X163600Y120500D02*X165100D01*
X165600Y121000D01*
X165100Y121500D02*X165600Y121000D01*
X163600Y121500D02*X165100D01*
X163100Y122000D02*X163600Y121500D01*
X163100Y122000D02*X163600Y122500D01*
X165100D01*
X165600Y122000D01*
X163100Y121000D02*X163600Y120500D01*
X168300Y122500D02*X168800Y122000D01*
X167300Y122500D02*X168300D01*
X166800Y122000D02*X167300Y122500D01*
X166800Y122000D02*Y121000D01*
X167300Y120500D01*
X168800Y122500D02*Y121000D01*
X169300Y120500D01*
X167300D02*X168300D01*
X168800Y121000D01*
X172000Y122500D02*X172500Y122000D01*
X171000Y122500D02*X172000D01*
X170500Y122000D02*X171000Y122500D01*
X170500Y122000D02*Y121000D01*
X171000Y120500D01*
X172000D01*
X172500Y121000D01*
X170500Y119500D02*X171000Y119000D01*
X172000D01*
X172500Y119500D01*
Y122500D02*Y119500D01*
X174200Y120500D02*X175700D01*
X173700Y121000D02*X174200Y120500D01*
X173700Y122000D02*Y121000D01*
Y122000D02*X174200Y122500D01*
X175200D01*
X175700Y122000D01*
X173700Y121500D02*X175700D01*
Y122000D02*Y121500D01*
X176900Y123000D02*X177400D01*
X176900Y122000D02*X177400D01*
X141000Y102000D02*X144000Y105000D01*
X145200D02*Y102000D01*
Y105000D02*X145700Y105500D01*
X146700D01*
X147200Y105000D01*
Y102000D01*
X146700Y101500D02*X147200Y102000D01*
X145700Y101500D02*X146700D01*
X145200Y102000D02*X145700Y101500D01*
X148400Y103500D02*X149900D01*
X148400Y101500D02*X150400D01*
X148400Y105500D02*Y101500D01*
Y105500D02*X150400D01*
X151600D02*Y101500D01*
Y105500D02*Y105000D01*
X154100Y102500D01*
Y105500D02*Y101500D01*
X157600Y105500D02*Y102000D01*
X158100Y101500D01*
X157100Y104000D02*X158100D01*
X159100Y103000D02*Y102000D01*
Y103000D02*X159600Y103500D01*
X160600D01*
X161100Y103000D01*
Y102000D01*
X160600Y101500D02*X161100Y102000D01*
X159600Y101500D02*X160600D01*
X159100Y102000D02*X159600Y101500D01*
X164600Y105500D02*Y101500D01*
X166100Y105500D02*X166600Y105000D01*
Y102000D01*
X166100Y101500D02*X166600Y102000D01*
X164100Y101500D02*X166100D01*
X164100Y105500D02*X166100D01*
X167800Y105000D02*X168300Y105500D01*
X169300D01*
X169800Y105000D01*
Y102000D01*
X169300Y101500D02*X169800Y102000D01*
X168300Y101500D02*X169300D01*
X167800Y102000D02*X168300Y101500D01*
Y103500D02*X169800D01*
X126000Y178500D02*Y174500D01*
Y178500D02*X127500Y177000D01*
X129000Y178500D01*
Y174500D01*
X130200Y178500D02*X132200D01*
X132700Y178000D01*
Y177000D01*
X132200Y176500D02*X132700Y177000D01*
X130700Y176500D02*X132200D01*
X130700Y178500D02*Y174500D01*
Y176500D02*X132700Y174500D01*
X133900D02*X135900D01*
X136400Y175000D01*
Y176000D02*Y175000D01*
X135900Y176500D02*X136400Y176000D01*
X134400Y176500D02*X135900D01*
X134400Y178500D02*Y174500D01*
X133900Y178500D02*X135900D01*
X136400Y178000D01*
Y177000D01*
X135900Y176500D02*X136400Y177000D01*
X137600Y176500D02*X139600D01*
X140800Y178000D02*Y174500D01*
Y178000D02*X141300Y178500D01*
X142800D01*
X143300Y178000D01*
Y174500D01*
X140800Y176500D02*X143300D01*
X144500Y178500D02*X146500D01*
X147000Y178000D01*
Y177000D01*
X146500Y176500D02*X147000Y177000D01*
X145000Y176500D02*X146500D01*
X145000Y178500D02*Y174500D01*
Y176500D02*X147000Y174500D01*
X148700Y178500D02*Y174500D01*
X150200Y178500D02*X150700Y178000D01*
Y175000D01*
X150200Y174500D02*X150700Y175000D01*
X148200Y174500D02*X150200D01*
X148200Y178500D02*X150200D01*
X153700Y176500D02*Y175500D01*
X154700Y174500D01*
X155700Y175500D01*
Y176500D02*Y175500D01*
X157400Y174500D02*X158400D01*
X157900Y178500D02*Y174500D01*
X156900Y177500D02*X157900Y178500D01*
X159600Y174500D02*X160100D01*
X161300Y175000D02*X161800Y174500D01*
X161300Y178000D02*Y175000D01*
Y178000D02*X161800Y178500D01*
X162800D01*
X163300Y178000D01*
Y175000D01*
X162800Y174500D02*X163300Y175000D01*
X161800Y174500D02*X162800D01*
X161300Y175500D02*X163300Y177500D01*
X112000Y171000D02*X113000D01*
X112500D02*Y167000D01*
X112000D02*X113000D01*
X114200Y168500D02*Y167500D01*
Y168500D02*X114700Y169000D01*
X115700D01*
X116200Y168500D01*
Y167500D01*
X115700Y167000D02*X116200Y167500D01*
X114700Y167000D02*X115700D01*
X114200Y167500D02*X114700Y167000D01*
X117400Y169000D02*Y167500D01*
X117900Y167000D01*
X118400D01*
X118900Y167500D01*
Y169000D02*Y167500D01*
X119400Y167000D01*
X119900D01*
X120400Y167500D01*
Y169000D02*Y167500D01*
X123100Y169000D02*X123600Y168500D01*
X122100Y169000D02*X123100D01*
X121600Y168500D02*X122100Y169000D01*
X121600Y168500D02*Y167500D01*
X122100Y167000D01*
X123600Y169000D02*Y167500D01*
X124100Y167000D01*
X122100D02*X123100D01*
X123600Y167500D01*
X129100Y171000D02*X129600Y170500D01*
X127600Y171000D02*X129100D01*
X127100Y170500D02*X127600Y171000D01*
X127100Y170500D02*Y169500D01*
X127600Y169000D01*
X129100D01*
X129600Y168500D01*
Y167500D01*
X129100Y167000D02*X129600Y167500D01*
X127600Y167000D02*X129100D01*
X127100Y167500D02*X127600Y167000D01*
X131300Y169000D02*X132800D01*
X130800Y168500D02*X131300Y169000D01*
X130800Y168500D02*Y167500D01*
X131300Y167000D01*
X132800D01*
X135500Y169000D02*X136000Y168500D01*
X134500Y169000D02*X135500D01*
X134000Y168500D02*X134500Y169000D01*
X134000Y168500D02*Y167500D01*
X134500Y167000D01*
X136000Y169000D02*Y167500D01*
X136500Y167000D01*
X134500D02*X135500D01*
X136000Y167500D01*
X137700Y171000D02*Y167500D01*
X138200Y167000D01*
X139700D02*X141200D01*
X139200Y167500D02*X139700Y167000D01*
X139200Y168500D02*Y167500D01*
Y168500D02*X139700Y169000D01*
X140700D01*
X141200Y168500D01*
X139200Y168000D02*X141200D01*
Y168500D02*Y168000D01*
X144400Y171000D02*Y167000D01*
X143900D02*X144400Y167500D01*
X142900Y167000D02*X143900D01*
X142400Y167500D02*X142900Y167000D01*
X142400Y168500D02*Y167500D01*
Y168500D02*X142900Y169000D01*
X143900D01*
X144400Y168500D01*
X147400Y169000D02*X148900D01*
X147400Y167000D02*X149400D01*
X147400Y171000D02*Y167000D01*
Y171000D02*X149400D01*
X151100Y168500D02*Y167000D01*
Y168500D02*X151600Y169000D01*
X152100D01*
X152600Y168500D01*
Y167000D01*
X150600Y169000D02*X151100Y168500D01*
X155300Y169000D02*X155800Y168500D01*
X154300Y169000D02*X155300D01*
X153800Y168500D02*X154300Y169000D01*
X153800Y168500D02*Y167500D01*
X154300Y167000D01*
X155300D01*
X155800Y167500D01*
X153800Y166000D02*X154300Y165500D01*
X155300D01*
X155800Y166000D01*
Y169000D02*Y166000D01*
X157000Y170000D02*Y169500D01*
Y168500D02*Y167000D01*
X158500Y168500D02*Y167000D01*
Y168500D02*X159000Y169000D01*
X159500D01*
X160000Y168500D01*
Y167000D01*
X158000Y169000D02*X158500Y168500D01*
X161700Y167000D02*X163200D01*
X161200Y167500D02*X161700Y167000D01*
X161200Y168500D02*Y167500D01*
Y168500D02*X161700Y169000D01*
X162700D01*
X163200Y168500D01*
X161200Y168000D02*X163200D01*
Y168500D02*Y168000D01*
X164900Y167000D02*X166400D01*
X164400Y167500D02*X164900Y167000D01*
X164400Y168500D02*Y167500D01*
Y168500D02*X164900Y169000D01*
X165900D01*
X166400Y168500D01*
X164400Y168000D02*X166400D01*
Y168500D02*Y168000D01*
X168100Y168500D02*Y167000D01*
Y168500D02*X168600Y169000D01*
X169600D01*
X167600D02*X168100Y168500D01*
X170800Y170000D02*Y169500D01*
Y168500D02*Y167000D01*
X172300Y168500D02*Y167000D01*
Y168500D02*X172800Y169000D01*
X173300D01*
X173800Y168500D01*
Y167000D01*
X171800Y169000D02*X172300Y168500D01*
X176500Y169000D02*X177000Y168500D01*
X175500Y169000D02*X176500D01*
X175000Y168500D02*X175500Y169000D01*
X175000Y168500D02*Y167500D01*
X175500Y167000D01*
X176500D01*
X177000Y167500D01*
X175000Y166000D02*X175500Y165500D01*
X176500D01*
X177000Y166000D01*
Y169000D02*Y166000D01*
X107000Y163500D02*Y159500D01*
Y161000D02*X107500Y161500D01*
X108500D01*
X109000Y161000D01*
Y159500D01*
X110700Y163500D02*Y160000D01*
X111200Y159500D01*
X110200Y162000D02*X111200D01*
X112700Y163500D02*Y160000D01*
X113200Y159500D01*
X112200Y162000D02*X113200D01*
X114700Y161000D02*Y158000D01*
X114200Y161500D02*X114700Y161000D01*
X115200Y161500D01*
X116200D01*
X116700Y161000D01*
Y160000D01*
X116200Y159500D02*X116700Y160000D01*
X115200Y159500D02*X116200D01*
X114700Y160000D02*X115200Y159500D01*
X117900Y162000D02*X118400D01*
X117900Y161000D02*X118400D01*
X119600Y160000D02*X122600Y163000D01*
X123800Y160000D02*X126800Y163000D01*
X128000Y161500D02*Y160000D01*
X128500Y159500D01*
X129000D01*
X129500Y160000D01*
Y161500D02*Y160000D01*
X130000Y159500D01*
X130500D01*
X131000Y160000D01*
Y161500D02*Y160000D01*
X132200Y161500D02*Y160000D01*
X132700Y159500D01*
X133200D01*
X133700Y160000D01*
Y161500D02*Y160000D01*
X134200Y159500D01*
X134700D01*
X135200Y160000D01*
Y161500D02*Y160000D01*
X136400Y161500D02*Y160000D01*
X136900Y159500D01*
X137400D01*
X137900Y160000D01*
Y161500D02*Y160000D01*
X138400Y159500D01*
X138900D01*
X139400Y160000D01*
Y161500D02*Y160000D01*
X140600Y159500D02*X141100D01*
X142300Y162500D02*Y162000D01*
Y161000D02*Y159500D01*
X144800Y161500D02*X145300Y161000D01*
X143800Y161500D02*X144800D01*
X143300Y161000D02*X143800Y161500D01*
X143300Y161000D02*Y160000D01*
X143800Y159500D01*
X145300Y161500D02*Y160000D01*
X145800Y159500D01*
X143800D02*X144800D01*
X145300Y160000D01*
X147500Y159500D02*X149000D01*
X149500Y160000D01*
X149000Y160500D02*X149500Y160000D01*
X147500Y160500D02*X149000D01*
X147000Y161000D02*X147500Y160500D01*
X147000Y161000D02*X147500Y161500D01*
X149000D01*
X149500Y161000D01*
X147000Y160000D02*X147500Y159500D01*
X151200Y161500D02*X152700D01*
X150700Y161000D02*X151200Y161500D01*
X150700Y161000D02*Y160000D01*
X151200Y159500D01*
X152700D01*
X155400Y161500D02*X155900Y161000D01*
X154400Y161500D02*X155400D01*
X153900Y161000D02*X154400Y161500D01*
X153900Y161000D02*Y160000D01*
X154400Y159500D01*
X155900Y161500D02*Y160000D01*
X156400Y159500D01*
X154400D02*X155400D01*
X155900Y160000D01*
X157600Y163500D02*Y160000D01*
X158100Y159500D01*
X159600D02*X161100D01*
X159100Y160000D02*X159600Y159500D01*
X159100Y161000D02*Y160000D01*
Y161000D02*X159600Y161500D01*
X160600D01*
X161100Y161000D01*
X159100Y160500D02*X161100D01*
Y161000D02*Y160500D01*
X164300Y163500D02*Y159500D01*
X163800D02*X164300Y160000D01*
X162800Y159500D02*X163800D01*
X162300Y160000D02*X162800Y159500D01*
X162300Y161000D02*Y160000D01*
Y161000D02*X162800Y161500D01*
X163800D01*
X164300Y161000D01*
X165500Y159500D02*X166000D01*
X167700Y161500D02*X169200D01*
X167200Y161000D02*X167700Y161500D01*
X167200Y161000D02*Y160000D01*
X167700Y159500D01*
X169200D01*
X170400Y161000D02*Y160000D01*
Y161000D02*X170900Y161500D01*
X171900D01*
X172400Y161000D01*
Y160000D01*
X171900Y159500D02*X172400Y160000D01*
X170900Y159500D02*X171900D01*
X170400Y160000D02*X170900Y159500D01*
X174100Y161000D02*Y159500D01*
Y161000D02*X174600Y161500D01*
X175100D01*
X175600Y161000D01*
Y159500D01*
Y161000D02*X176100Y161500D01*
X176600D01*
X177100Y161000D01*
Y159500D01*
X173600Y161500D02*X174100Y161000D01*
X132000Y152000D02*X133500D01*
X131500Y152500D02*X132000Y152000D01*
X131500Y155500D02*Y152500D01*
Y155500D02*X132000Y156000D01*
X133500D01*
X135200Y152000D02*X136700D01*
X134700Y152500D02*X135200Y152000D01*
X134700Y155500D02*Y152500D01*
Y155500D02*X135200Y156000D01*
X136700D01*
X139700Y152000D02*X141700D01*
X142200Y152500D01*
Y153500D02*Y152500D01*
X141700Y154000D02*X142200Y153500D01*
X140200Y154000D02*X141700D01*
X140200Y156000D02*Y152000D01*
X139700Y156000D02*X141700D01*
X142200Y155500D01*
Y154500D01*
X141700Y154000D02*X142200Y154500D01*
X143400Y156000D02*Y155500D01*
X144400Y154500D01*
X145400Y155500D01*
Y156000D02*Y155500D01*
X144400Y154500D02*Y152000D01*
X146600Y154000D02*X148600D01*
X151800Y156000D02*X152300Y155500D01*
X150300Y156000D02*X151800D01*
X149800Y155500D02*X150300Y156000D01*
X149800Y155500D02*Y154500D01*
X150300Y154000D01*
X151800D01*
X152300Y153500D01*
Y152500D01*
X151800Y152000D02*X152300Y152500D01*
X150300Y152000D02*X151800D01*
X149800Y152500D02*X150300Y152000D01*
X153500Y155500D02*Y152000D01*
Y155500D02*X154000Y156000D01*
X155500D01*
X156000Y155500D01*
Y152000D01*
X153500Y154000D02*X156000D01*
X159000Y152500D02*X159500Y152000D01*
X159000Y155500D02*X159500Y156000D01*
X159000Y155500D02*Y152500D01*
X161200Y152000D02*X162700D01*
X160700Y152500D02*X161200Y152000D01*
X160700Y155500D02*Y152500D01*
Y155500D02*X161200Y156000D01*
X162700D01*
X163900D02*X164400Y155500D01*
Y152500D01*
X163900Y152000D02*X164400Y152500D01*
X165600Y155500D02*X166100Y156000D01*
X167600D01*
X168100Y155500D01*
Y154500D01*
X165600Y152000D02*X168100Y154500D01*
X165600Y152000D02*X168100D01*
X169300Y152500D02*X169800Y152000D01*
X169300Y155500D02*Y152500D01*
Y155500D02*X169800Y156000D01*
X170800D01*
X171300Y155500D01*
Y152500D01*
X170800Y152000D02*X171300Y152500D01*
X169800Y152000D02*X170800D01*
X169300Y153000D02*X171300Y155000D01*
X173000Y152000D02*X174000D01*
X173500Y156000D02*Y152000D01*
X172500Y155000D02*X173500Y156000D01*
X175200Y155500D02*X175700Y156000D01*
X176700D01*
X177200Y155500D01*
Y152500D01*
X176700Y152000D02*X177200Y152500D01*
X175700Y152000D02*X176700D01*
X175200Y152500D02*X175700Y152000D01*
Y154000D02*X177200D01*
X117000Y146500D02*Y142500D01*
X116500Y146500D02*X118500D01*
X119000Y146000D01*
Y145000D01*
X118500Y144500D02*X119000Y145000D01*
X117000Y144500D02*X118500D01*
X120200D02*Y143000D01*
X120700Y142500D01*
X121200D01*
X121700Y143000D01*
Y144500D02*Y143000D01*
X122200Y142500D01*
X122700D01*
X123200Y143000D01*
Y144500D02*Y143000D01*
X124900Y144000D02*Y142500D01*
Y144000D02*X125400Y144500D01*
X126400D01*
X124400D02*X124900Y144000D01*
X129400Y146000D02*Y142500D01*
Y146000D02*X129900Y146500D01*
X131400D01*
X131900Y146000D01*
Y142500D01*
X129400Y144500D02*X131900D01*
X133600Y144000D02*Y142500D01*
Y144000D02*X134100Y144500D01*
X135100D01*
X133100D02*X133600Y144000D01*
X138300Y146500D02*Y142500D01*
X137800D02*X138300Y143000D01*
X136800Y142500D02*X137800D01*
X136300Y143000D02*X136800Y142500D01*
X136300Y144000D02*Y143000D01*
Y144000D02*X136800Y144500D01*
X137800D01*
X138300Y144000D01*
X139500Y144500D02*Y143000D01*
X140000Y142500D01*
X141000D01*
X141500Y143000D01*
Y144500D02*Y143000D01*
X142700Y145500D02*Y145000D01*
Y144000D02*Y142500D01*
X144200Y144000D02*Y142500D01*
Y144000D02*X144700Y144500D01*
X145200D01*
X145700Y144000D01*
Y142500D01*
X143700Y144500D02*X144200Y144000D01*
X146900D02*Y143000D01*
Y144000D02*X147400Y144500D01*
X148400D01*
X148900Y144000D01*
Y143000D01*
X148400Y142500D02*X148900Y143000D01*
X147400Y142500D02*X148400D01*
X146900Y143000D02*X147400Y142500D01*
X116500Y140500D02*Y136500D01*
Y140500D02*X118500D01*
X116500Y138500D02*X118000D01*
X120200Y138000D02*Y136500D01*
Y138000D02*X120700Y138500D01*
X121700D01*
X119700D02*X120200Y138000D01*
X122900D02*Y137000D01*
Y138000D02*X123400Y138500D01*
X124400D01*
X124900Y138000D01*
Y137000D01*
X124400Y136500D02*X124900Y137000D01*
X123400Y136500D02*X124400D01*
X122900Y137000D02*X123400Y136500D01*
X126600Y138000D02*Y136500D01*
Y138000D02*X127100Y138500D01*
X127600D01*
X128100Y138000D01*
Y136500D01*
Y138000D02*X128600Y138500D01*
X129100D01*
X129600Y138000D01*
Y136500D01*
X126100Y138500D02*X126600Y138000D01*
X132600Y140500D02*Y136500D01*
Y140500D02*X134100Y139000D01*
X135600Y140500D01*
Y136500D01*
X136800Y140500D02*X138800D01*
X139300Y140000D01*
Y139000D01*
X138800Y138500D02*X139300Y139000D01*
X137300Y138500D02*X138800D01*
X137300Y140500D02*Y136500D01*
Y138500D02*X139300Y136500D01*
X140500D02*X142500D01*
X143000Y137000D01*
Y138000D02*Y137000D01*
X142500Y138500D02*X143000Y138000D01*
X141000Y138500D02*X142500D01*
X141000Y140500D02*Y136500D01*
X140500Y140500D02*X142500D01*
X143000Y140000D01*
Y139000D01*
X142500Y138500D02*X143000Y139000D01*
X144200Y138500D02*Y137000D01*
X144700Y136500D01*
X145700D01*
X146200Y137000D01*
Y138500D02*Y137000D01*
X147900Y136500D02*X149400D01*
X149900Y137000D01*
X149400Y137500D02*X149900Y137000D01*
X147900Y137500D02*X149400D01*
X147400Y138000D02*X147900Y137500D01*
X147400Y138000D02*X147900Y138500D01*
X149400D01*
X149900Y138000D01*
X147400Y137000D02*X147900Y136500D01*
X5500Y165500D02*Y85500D01*
X15500D01*
Y165500D01*
X5500D01*
Y155500D02*X15500D01*
Y165500D01*
X5500Y75500D02*Y15500D01*
X15500D01*
Y75500D01*
X5500D01*
Y65500D02*X15500D01*
Y75500D01*
X41107Y164255D02*X41893D01*
X41107Y158745D02*X41893D01*
G54D76*X32200Y125100D02*X40800D01*
G54D75*X32200D02*X31000Y122700D01*
Y106900D01*
X42000D01*
Y122700D02*Y106900D01*
Y122700D02*X40800Y125100D01*
X56107Y158745D02*X56893D01*
X56107Y164255D02*X56893D01*
X62000Y125500D02*Y105500D01*
X72000D01*
Y125500D01*
X62000D01*
Y115500D02*X72000D01*
Y125500D01*
G54D76*X96000Y81800D02*Y10500D01*
X44000Y81800D02*Y10500D01*
Y81800D02*X96000D01*
X44000Y10500D02*X96000Y10480D01*
G54D75*X61255Y92893D02*Y92107D01*
X55745Y92893D02*Y92107D01*
X42508Y154492D02*Y147996D01*
Y135004D02*Y128508D01*
X61996D01*
X42508Y154492D02*X61996D01*
Y128508D02*X68492Y135004D01*
X61996Y154492D02*X68492Y147996D01*
X61500Y151500D02*Y147500D01*
X59500Y149500D02*X63500D01*
X26607Y178245D02*X27393D01*
X26607Y183755D02*X27393D01*
X27255Y219893D02*Y219107D01*
X21745Y219893D02*Y219107D01*
X21000Y209000D02*Y189000D01*
X31000D01*
Y209000D01*
X21000D01*
Y199000D02*X31000D01*
Y209000D01*
X37107Y215245D02*X37893D01*
X37107Y220755D02*X37893D01*
X38255Y200893D02*Y200107D01*
X32745Y200893D02*Y200107D01*
X40500Y169000D02*X80500D01*
Y209000D02*Y169000D01*
X40500Y209000D02*X80500D01*
X40500Y184000D02*Y169000D01*
Y209000D02*Y194000D01*
Y184000D02*G75*G03X40500Y194000I0J5000D01*G01*
X63000Y258800D02*X103000D01*
X63000Y228800D02*X103000D01*
X63000Y233200D02*X103000D01*
Y258800D02*Y228800D01*
X63000Y258800D02*Y228800D01*
X93607Y178245D02*X94393D01*
X93607Y183755D02*X94393D01*
X80100Y223000D02*X99800D01*
X80100Y215000D02*X99800D01*
Y223000D02*Y215000D01*
X80100Y223000D02*Y215000D01*
X93000Y223000D02*Y215000D01*
X90000Y209000D02*Y189000D01*
X100000D01*
Y209000D01*
X90000D01*
Y199000D02*X100000D01*
Y209000D01*
X23000Y258800D02*X63000D01*
X23000Y228800D02*X63000D01*
X23000Y233200D02*X63000D01*
Y258800D02*Y228800D01*
X23000Y258800D02*Y228800D01*
X13240Y247862D02*Y243138D01*
X5760Y247862D02*Y243138D01*
X6260Y183862D02*Y179138D01*
X13740Y183862D02*Y179138D01*
X138245Y91893D02*Y91107D01*
X143755Y91893D02*Y91107D01*
X105000Y23500D02*X135000D01*
Y43500D02*Y23500D01*
X105000Y43500D02*X135000D01*
X105000D02*Y23500D01*
X115000Y33500D02*Y23500D01*
X105000Y33500D02*X115000D01*
X105000Y70000D02*Y50000D01*
X115000D01*
Y70000D01*
X105000D01*
Y60000D02*X115000D01*
Y70000D01*
X103500Y155500D02*Y135500D01*
X113500D01*
Y155500D02*Y135500D01*
X103500Y155500D02*X113500D01*
X103500Y145500D02*X113500D01*
Y155500D02*Y145500D01*
X205500Y95500D02*Y15500D01*
X195500Y95500D02*X205500D01*
X195500D02*Y15500D01*
X205500D01*
X195500Y25500D02*X205500D01*
X195500D02*Y15500D01*
X205500Y201500D02*Y101500D01*
X195500Y201500D02*X205500D01*
X195500D02*Y101500D01*
X205500D01*
X195500Y111500D02*X205500D01*
X195500D02*Y101500D01*
X107245Y91893D02*Y91107D01*
X112755Y91893D02*Y91107D01*
X161500Y75500D02*Y45500D01*
X181500D01*
Y75500D01*
X161500D01*
Y65500D02*X171500D01*
Y75500D01*
X125000Y70000D02*Y50000D01*
X135000D01*
Y70000D01*
X125000D01*
Y60000D02*X135000D01*
Y70000D01*
X127245Y91893D02*Y91107D01*
X132755Y91893D02*Y91107D01*
X150607Y57745D02*X151393D01*
X150607Y63255D02*X151393D01*
G54D76*X120500Y255425D02*Y184125D01*
X180500Y255425D02*Y184125D01*
X120500D02*X180500D01*
Y255425D02*X120500Y255445D01*
G54D75*X8500Y83000D02*X10000D01*
Y79500D01*
X9500Y79000D02*X10000Y79500D01*
X9000Y79000D02*X9500D01*
X8500Y79500D02*X9000Y79000D01*
X11700D02*X12700D01*
X12200Y83000D02*Y79000D01*
X11200Y82000D02*X12200Y83000D01*
X78343Y33000D02*X79843D01*
X78343Y36500D02*Y33000D01*
X78843Y37000D02*X78343Y36500D01*
X78843Y37000D02*X79343D01*
X79843Y36500D02*X79343Y37000D01*
X75643Y33000D02*X75143Y33500D01*
X75643Y33000D02*X76643D01*
X77143Y33500D02*X76643Y33000D01*
X77143Y36500D02*Y33500D01*
Y36500D02*X76643Y37000D01*
X75643Y35000D02*X75143Y35500D01*
X75643Y35000D02*X77143D01*
X75643Y37000D02*X76643D01*
X75643D02*X75143Y36500D01*
Y35500D01*
X105000Y20500D02*X106500D01*
Y17000D01*
X106000Y16500D02*X106500Y17000D01*
X105500Y16500D02*X106000D01*
X105000Y17000D02*X105500Y16500D01*
X108200Y20500D02*Y16500D01*
X107700Y20500D02*X109700D01*
X110200Y20000D01*
Y19000D01*
X109700Y18500D02*X110200Y19000D01*
X108200Y18500D02*X109700D01*
X112900Y20500D02*X113400Y20000D01*
X111900Y20500D02*X112900D01*
X111400Y20000D02*X111900Y20500D01*
X111400Y20000D02*Y17000D01*
X111900Y16500D01*
X112900Y18500D02*X113400Y18000D01*
X111400Y18500D02*X112900D01*
X111900Y16500D02*X112900D01*
X113400Y17000D01*
Y18000D02*Y17000D01*
X104000Y95000D02*Y93000D01*
X103500Y92500D01*
X102500D02*X103500D01*
X102000Y93000D02*X102500Y92500D01*
X102000Y94500D02*Y93000D01*
X100000Y94500D02*X104000D01*
X102000D02*X100000Y92500D01*
Y91300D02*X102000Y89300D01*
X103500D01*
X104000Y89800D02*X103500Y89300D01*
X104000Y90800D02*Y89800D01*
X103500Y91300D02*X104000Y90800D01*
X102500Y91300D02*X103500D01*
X102500D02*X102000Y90800D01*
Y89300D01*
X34500Y100500D02*X36000D01*
X34000Y101000D02*X34500Y100500D01*
X34000Y104000D02*Y101000D01*
Y104000D02*X34500Y104500D01*
X36000D01*
X37700Y100500D02*X38700D01*
X38200Y104500D02*Y100500D01*
X37200Y103500D02*X38200Y104500D01*
X78000Y118500D02*Y117000D01*
X74500D02*X78000D01*
X74000Y117500D02*X74500Y117000D01*
X74000Y118000D02*Y117500D01*
X74500Y118500D02*X74000Y118000D01*
Y115300D02*X78000D01*
Y115800D02*Y113800D01*
X77500Y113300D01*
X76500D02*X77500D01*
X76000Y113800D02*X76500Y113300D01*
X76000Y115300D02*Y113800D01*
X74000Y112100D02*X76500Y109600D01*
X78000D01*
Y112100D02*Y109600D01*
X60500Y106000D02*Y104000D01*
X60000Y103500D01*
X59000D02*X60000D01*
X58500Y104000D02*X59000Y103500D01*
X58500Y105500D02*Y104000D01*
X56500Y105500D02*X60500D01*
X58500D02*X56500Y103500D01*
X57000Y102300D02*X56500Y101800D01*
X57000Y102300D02*X58000D01*
X58500Y101800D01*
Y100800D01*
X58000Y100300D01*
X57000D02*X58000D01*
X56500Y100800D02*X57000Y100300D01*
X56500Y101800D02*Y100800D01*
X59000Y102300D02*X58500Y101800D01*
X59000Y102300D02*X60000D01*
X60500Y101800D01*
Y100800D01*
X60000Y100300D01*
X59000D02*X60000D01*
X58500Y100800D02*X59000Y100300D01*
X51500Y122000D02*X53000D01*
X51000Y122500D02*X51500Y122000D01*
X51000Y125500D02*Y122500D01*
Y125500D02*X51500Y126000D01*
X53000D01*
X54200Y125500D02*X54700Y126000D01*
X55700D01*
X56200Y125500D01*
Y122500D01*
X55700Y122000D02*X56200Y122500D01*
X54700Y122000D02*X55700D01*
X54200Y122500D02*X54700Y122000D01*
Y124000D02*X56200D01*
X150000Y95500D02*Y93500D01*
X149500Y93000D01*
X148500D02*X149500D01*
X148000Y93500D02*X148500Y93000D01*
X148000Y95000D02*Y93500D01*
X146000Y95000D02*X150000D01*
X148000D02*X146000Y93000D01*
Y91300D02*Y90300D01*
Y90800D02*X150000D01*
X149000Y91800D02*X150000Y90800D01*
X146000Y88600D02*Y87600D01*
Y88100D02*X150000D01*
X149000Y89100D02*X150000Y88100D01*
X148000Y55500D02*X150000D01*
X150500Y55000D01*
Y54000D01*
X150000Y53500D02*X150500Y54000D01*
X148500Y53500D02*X150000D01*
X148500Y55500D02*Y51500D01*
Y53500D02*X150500Y51500D01*
X151700D02*X154200Y54000D01*
Y55500D02*Y54000D01*
X151700Y55500D02*X154200D01*
X165000Y81500D02*X166500D01*
Y78000D01*
X166000Y77500D02*X166500Y78000D01*
X165500Y77500D02*X166000D01*
X165000Y78000D02*X165500Y77500D01*
X168200Y81500D02*Y77500D01*
X167700Y81500D02*X169700D01*
X170200Y81000D01*
Y80000D01*
X169700Y79500D02*X170200Y80000D01*
X168200Y79500D02*X169700D01*
X171400D02*X173400Y81500D01*
X171400Y79500D02*X173900D01*
X173400Y81500D02*Y77500D01*
X132000Y83500D02*Y82000D01*
X128500D02*X132000D01*
X128000Y82500D02*X128500Y82000D01*
X128000Y83000D02*Y82500D01*
X128500Y83500D02*X128000Y83000D01*
Y80300D02*X132000D01*
Y80800D02*Y78800D01*
X131500Y78300D01*
X130500D02*X131500D01*
X130000Y78800D02*X130500Y78300D01*
X130000Y80300D02*Y78800D01*
X132000Y77100D02*Y75100D01*
X130000Y77100D02*X132000D01*
X130000D02*X130500Y76600D01*
Y75600D01*
X130000Y75100D01*
X128500D02*X130000D01*
X128000Y75600D02*X128500Y75100D01*
X128000Y76600D02*Y75600D01*
X128500Y77100D02*X128000Y76600D01*
Y73900D02*Y71900D01*
X128500Y71400D01*
X129500D01*
X130000Y71900D02*X129500Y71400D01*
X130000Y73400D02*Y71900D01*
X128000Y73400D02*X132000D01*
Y73900D02*Y71900D01*
X131500Y71400D01*
X130500D02*X131500D01*
X130000Y71900D02*X130500Y71400D01*
X125000Y95500D02*Y93500D01*
X124500Y93000D01*
X123500D02*X124500D01*
X123000Y93500D02*X123500Y93000D01*
X123000Y95000D02*Y93500D01*
X121000Y95000D02*X125000D01*
X123000D02*X121000Y93000D01*
Y91300D02*Y90300D01*
Y90800D02*X125000D01*
X124000Y91800D02*X125000Y90800D01*
X121500Y89100D02*X121000Y88600D01*
X121500Y89100D02*X124500D01*
X125000Y88600D01*
Y87600D01*
X124500Y87100D01*
X121500D02*X124500D01*
X121000Y87600D02*X121500Y87100D01*
X121000Y88600D02*Y87600D01*
X122000Y89100D02*X124000Y87100D01*
X112000Y83500D02*Y82000D01*
X108500D02*X112000D01*
X108000Y82500D02*X108500Y82000D01*
X108000Y83000D02*Y82500D01*
X108500Y83500D02*X108000Y83000D01*
Y80300D02*X112000D01*
Y80800D02*Y78800D01*
X111500Y78300D01*
X110500D02*X111500D01*
X110000Y78800D02*X110500Y78300D01*
X110000Y80300D02*Y78800D01*
X112000Y77100D02*Y75100D01*
X110000Y77100D02*X112000D01*
X110000D02*X110500Y76600D01*
Y75600D01*
X110000Y75100D01*
X108500D02*X110000D01*
X108000Y75600D02*X108500Y75100D01*
X108000Y76600D02*Y75600D01*
X108500Y77100D02*X108000Y76600D01*
Y73900D02*X111500D01*
X112000Y73400D01*
Y71900D01*
X111500Y71400D01*
X108000D02*X111500D01*
X110000Y73900D02*Y71400D01*
X20500Y232500D02*Y230500D01*
X20000Y230000D01*
X19000D02*X20000D01*
X18500Y230500D02*X19000Y230000D01*
X18500Y232000D02*Y230500D01*
X16500Y232000D02*X20500D01*
X18500D02*X16500Y230000D01*
Y228300D02*Y227300D01*
Y227800D02*X20500D01*
X19500Y228800D02*X20500Y227800D01*
X39000Y222500D02*X40500D01*
X38500Y223000D02*X39000Y222500D01*
X38500Y226000D02*Y223000D01*
Y226000D02*X39000Y226500D01*
X40500D01*
X41700Y226000D02*X42200Y226500D01*
X43700D01*
X44200Y226000D01*
Y225000D01*
X41700Y222500D02*X44200Y225000D01*
X41700Y222500D02*X44200D01*
X24000Y175500D02*X26000D01*
X26500Y175000D01*
Y174000D01*
X26000Y173500D02*X26500Y174000D01*
X24500Y173500D02*X26000D01*
X24500Y175500D02*Y171500D01*
Y173500D02*X26500Y171500D01*
X27700Y175500D02*X29700D01*
X27700D02*Y173500D01*
X28200Y174000D01*
X29200D01*
X29700Y173500D01*
Y172000D01*
X29200Y171500D02*X29700Y172000D01*
X28200Y171500D02*X29200D01*
X27700Y172000D02*X28200Y171500D01*
X16000Y174500D02*X20000D01*
Y173000D02*X19500Y172500D01*
X16500D02*X19500D01*
X16000Y173000D02*X16500Y172500D01*
X16000Y175000D02*Y173000D01*
X20000Y175000D02*Y173000D01*
X19500Y171300D02*X20000Y170800D01*
Y169300D01*
X19500Y168800D01*
X18500D02*X19500D01*
X16000Y171300D02*X18500Y168800D01*
X16000Y171300D02*Y168800D01*
X31500Y170500D02*X33500D01*
X34000Y170000D01*
Y169000D01*
X33500Y168500D02*X34000Y169000D01*
X32000Y168500D02*X33500D01*
X32000Y170500D02*Y166500D01*
Y168500D02*X34000Y166500D01*
X35200Y168500D02*X37200Y170500D01*
X35200Y168500D02*X37700D01*
X37200Y170500D02*Y166500D01*
X18500Y205500D02*Y204000D01*
X15000D02*X18500D01*
X14500Y204500D02*X15000Y204000D01*
X14500Y205000D02*Y204500D01*
X15000Y205500D02*X14500Y205000D01*
Y202300D02*X18500D01*
Y202800D02*Y200800D01*
X18000Y200300D01*
X17000D02*X18000D01*
X16500Y200800D02*X17000Y200300D01*
X16500Y202300D02*Y200800D01*
X18000Y199100D02*X18500Y198600D01*
Y197100D01*
X18000Y196600D01*
X17000D02*X18000D01*
X14500Y199100D02*X17000Y196600D01*
X14500Y199100D02*Y196600D01*
X14000Y261000D02*X18000D01*
Y259500D02*X17500Y259000D01*
X14500D02*X17500D01*
X14000Y259500D02*X14500Y259000D01*
X14000Y261500D02*Y259500D01*
X18000Y261500D02*Y259500D01*
X14000Y257300D02*Y256300D01*
Y256800D02*X18000D01*
X17000Y257800D02*X18000Y256800D01*
X38000Y192000D02*Y190000D01*
X37500Y189500D01*
X36500D02*X37500D01*
X36000Y190000D02*X36500Y189500D01*
X36000Y191500D02*Y190000D01*
X34000Y191500D02*X38000D01*
X36000D02*X34000Y189500D01*
X37500Y188300D02*X38000Y187800D01*
Y186300D01*
X37500Y185800D01*
X36500D02*X37500D01*
X34000Y188300D02*X36500Y185800D01*
X34000Y188300D02*Y185800D01*
X91500Y175500D02*X93500D01*
X94000Y175000D01*
Y174000D01*
X93500Y173500D02*X94000Y174000D01*
X92000Y173500D02*X93500D01*
X92000Y175500D02*Y171500D01*
Y173500D02*X94000Y171500D01*
X96700Y175500D02*X97200Y175000D01*
X95700Y175500D02*X96700D01*
X95200Y175000D02*X95700Y175500D01*
X95200Y175000D02*Y172000D01*
X95700Y171500D01*
X96700Y173500D02*X97200Y173000D01*
X95200Y173500D02*X96700D01*
X95700Y171500D02*X96700D01*
X97200Y172000D01*
Y173000D02*Y172000D01*
X184500Y206500D02*X186000D01*
Y203000D01*
X185500Y202500D02*X186000Y203000D01*
X185000Y202500D02*X185500D01*
X184500Y203000D02*X185000Y202500D01*
X187200Y206000D02*X187700Y206500D01*
X189200D01*
X189700Y206000D01*
Y205000D01*
X187200Y202500D02*X189700Y205000D01*
X187200Y202500D02*X189700D01*
X187500Y249000D02*Y247500D01*
X184000D02*X187500D01*
X183500Y248000D02*X184000Y247500D01*
X183500Y248500D02*Y248000D01*
X184000Y249000D02*X183500Y248500D01*
X187500Y246300D02*Y244300D01*
X185500Y246300D02*X187500D01*
X185500D02*X186000Y245800D01*
Y244800D01*
X185500Y244300D01*
X184000D02*X185500D01*
X183500Y244800D02*X184000Y244300D01*
X183500Y245800D02*Y244800D01*
X184000Y246300D02*X183500Y245800D01*
X105500Y235500D02*X107000D01*
Y232000D01*
X106500Y231500D02*X107000Y232000D01*
X106000Y231500D02*X106500D01*
X105500Y232000D02*X106000Y231500D01*
X108200Y235000D02*X108700Y235500D01*
X109700D01*
X110200Y235000D01*
Y232000D01*
X109700Y231500D02*X110200Y232000D01*
X108700Y231500D02*X109700D01*
X108200Y232000D02*X108700Y231500D01*
Y233500D02*X110200D01*
X55000Y226500D02*X56500D01*
Y223000D01*
X56000Y222500D02*X56500Y223000D01*
X55500Y222500D02*X56000D01*
X55000Y223000D02*X55500Y222500D01*
X57700Y224500D02*X59700Y226500D01*
X57700Y224500D02*X60200D01*
X59700Y226500D02*Y222500D01*
X55000Y217000D02*Y216500D01*
X57500Y214000D01*
Y213000D01*
X55000Y214000D02*Y213000D01*
Y214000D02*X57500Y216500D01*
Y217000D02*Y216500D01*
X58700Y217000D02*Y213500D01*
X59200Y213000D01*
X60200D01*
X60700Y213500D01*
Y217000D02*Y213500D01*
X62400Y213000D02*X63400D01*
X62900Y217000D02*Y213000D01*
X61900Y216000D02*X62900Y217000D01*
X71000Y221000D02*Y217000D01*
X72500Y221000D02*X73000Y220500D01*
Y217500D01*
X72500Y217000D02*X73000Y217500D01*
X70500Y217000D02*X72500D01*
X70500Y221000D02*X72500D01*
X74200Y220500D02*X74700Y221000D01*
X75700D01*
X76200Y220500D01*
Y217500D01*
X75700Y217000D02*X76200Y217500D01*
X74700Y217000D02*X75700D01*
X74200Y217500D02*X74700Y217000D01*
Y219000D02*X76200D01*
X87000Y199500D02*Y198000D01*
X83500D02*X87000D01*
X83000Y198500D02*X83500Y198000D01*
X83000Y199000D02*Y198500D01*
X83500Y199500D02*X83000Y199000D01*
Y196300D02*X87000D01*
Y196800D02*Y194800D01*
X86500Y194300D01*
X85500D02*X86500D01*
X85000Y194800D02*X85500Y194300D01*
X85000Y196300D02*Y194800D01*
X86500Y193100D02*X87000Y192600D01*
Y191600D01*
X86500Y191100D01*
X83500D02*X86500D01*
X83000Y191600D02*X83500Y191100D01*
X83000Y192600D02*Y191600D01*
X83500Y193100D02*X83000Y192600D01*
X85000D02*Y191100D01*
X117000Y153000D02*X118500D01*
Y149500D01*
X118000Y149000D02*X118500Y149500D01*
X117500Y149000D02*X118000D01*
X117000Y149500D02*X117500Y149000D01*
X120200Y153000D02*Y149000D01*
X119700Y153000D02*X121700D01*
X122200Y152500D01*
Y151500D01*
X121700Y151000D02*X122200Y151500D01*
X120200Y151000D02*X121700D01*
X123900Y149000D02*X124900D01*
X124400Y153000D02*Y149000D01*
X123400Y152000D02*X124400Y153000D01*
X64500Y163500D02*X66500D01*
X67000Y163000D01*
Y162000D01*
X66500Y161500D02*X67000Y162000D01*
X65000Y161500D02*X66500D01*
X65000Y163500D02*Y159500D01*
Y161500D02*X67000Y159500D01*
X68200Y163000D02*X68700Y163500D01*
X69700D01*
X70200Y163000D01*
Y160000D01*
X69700Y159500D02*X70200Y160000D01*
X68700Y159500D02*X69700D01*
X68200Y160000D02*X68700Y159500D01*
Y161500D02*X70200D01*
M02*
