G04 start of page 9 for group -4015 idx -4015 *
G04 Title: (unknown), toppaste *
G04 Creator: pcb 20110918 *
G04 CreationDate: Sat 02 Feb 2013 11:25:27 PM GMT UTC *
G04 For: petersen *
G04 Format: Gerber/RS-274X *
G04 PCB-Dimensions: 211000 271000 *
G04 PCB-Coordinate-Origin: lower left *
%MOIN*%
%FSLAX25Y25*%
%LNTOPPASTE*%
%ADD80R,0.0630X0.0630*%
%ADD79R,0.0490X0.0490*%
%ADD78R,0.0360X0.0360*%
%ADD77R,0.0512X0.0512*%
G54D77*X109607Y87957D02*X110393D01*
X109607Y95043D02*X110393D01*
X30543Y181393D02*Y180607D01*
X23457Y181393D02*Y180607D01*
X97543Y181393D02*Y180607D01*
X90457Y181393D02*Y180607D01*
X37957Y161893D02*Y161107D01*
X45043Y161893D02*Y161107D01*
X24107Y223043D02*X24893D01*
X24107Y215957D02*X24893D01*
X140607Y87957D02*X141393D01*
X140607Y95043D02*X141393D01*
X41043Y218393D02*Y217607D01*
X33957Y218393D02*Y217607D01*
G54D78*X96400Y219600D02*Y218400D01*
X83500Y219600D02*Y218400D01*
G54D77*X8319Y251405D02*X10681D01*
X8319Y239595D02*X10681D01*
X35107Y204043D02*X35893D01*
X35107Y196957D02*X35893D01*
X60043Y161893D02*Y161107D01*
X52957Y161893D02*Y161107D01*
G54D79*X34700Y120500D02*X38300D01*
X34700Y110500D02*X38300D01*
G54D77*X58107Y96043D02*X58893D01*
X58107Y88957D02*X58893D01*
X129607Y87957D02*X130393D01*
X129607Y95043D02*X130393D01*
X154543Y60893D02*Y60107D01*
X147457Y60893D02*Y60107D01*
X8819Y175595D02*X11181D01*
X8819Y187405D02*X11181D01*
G54D80*X62193Y141500D02*X68492D01*
X42508D02*X48807D01*
M02*
