G04 start of page 7 for group -4062 idx -4062 *
G04 Title: (unknown), soldermask *
G04 Creator: pcb 20110918 *
G04 CreationDate: Sat 02 Feb 2013 11:25:27 PM GMT UTC *
G04 For: petersen *
G04 Format: Gerber/RS-274X *
G04 PCB-Dimensions: 211000 271000 *
G04 PCB-Coordinate-Origin: lower left *
%MOIN*%
%FSLAX25Y25*%
%LNBOTTOMMASK*%
%ADD74C,0.0860*%
%ADD73C,0.0760*%
%ADD72C,0.0750*%
%ADD71C,0.0001*%
%ADD70C,0.0660*%
%ADD69C,0.1560*%
G54D69*X200500Y210500D03*
G54D70*Y70500D03*
Y80500D03*
Y90500D03*
Y106500D03*
Y116500D03*
Y126500D03*
Y136500D03*
Y146500D03*
Y156500D03*
Y166500D03*
G54D71*G36*
X42200Y177300D02*Y170700D01*
X48800D01*
Y177300D01*
X42200D01*
G37*
G54D70*X55500Y174000D03*
X65500D03*
X75500D03*
X95000Y194000D03*
G54D71*G36*
X105200Y153800D02*Y147200D01*
X111800D01*
Y153800D01*
X105200D01*
G37*
G54D70*X108500Y140500D03*
G54D71*G36*
X63700Y123800D02*Y117200D01*
X70300D01*
Y123800D01*
X63700D01*
G37*
G54D70*X67000Y110500D03*
G54D72*X133000Y189425D03*
G54D69*X140500Y10500D03*
G54D70*X200500Y176500D03*
G54D71*G36*
X163200Y73800D02*Y67200D01*
X169800D01*
Y73800D01*
X163200D01*
G37*
G36*
X197200Y23800D02*Y17200D01*
X203800D01*
Y23800D01*
X197200D01*
G37*
G54D70*X200500Y30500D03*
Y40500D03*
Y50500D03*
Y60500D03*
X166500D03*
Y50500D03*
X176500Y60500D03*
Y50500D03*
Y70500D03*
G54D73*X57500Y76500D03*
X62500Y66500D03*
X67500Y76500D03*
X72500Y66500D03*
X77500Y76500D03*
X82500Y66500D03*
G54D69*X90000Y41500D03*
G54D70*X110000Y38500D03*
G54D71*G36*
X106700Y31800D02*Y25200D01*
X113300D01*
Y31800D01*
X106700D01*
G37*
G54D70*X120000Y28500D03*
X130000D03*
X120000Y38500D03*
X130000D03*
G54D71*G36*
X126700Y68300D02*Y61700D01*
X133300D01*
Y68300D01*
X126700D01*
G37*
G54D70*X130000Y55000D03*
G54D71*G36*
X106700Y68300D02*Y61700D01*
X113300D01*
Y68300D01*
X106700D01*
G37*
G54D70*X110000Y55000D03*
X200500Y186500D03*
Y196500D03*
G54D72*X168000Y199425D03*
X163000Y189425D03*
X158000Y199425D03*
X153000Y189425D03*
X148000Y199425D03*
X143000Y189425D03*
X138000Y199425D03*
G54D69*X173000Y224425D03*
X128000D03*
X30500Y10500D03*
G54D70*X10500Y70500D03*
Y60500D03*
Y50500D03*
Y40500D03*
Y30500D03*
Y20500D03*
G54D69*X50000Y41500D03*
X10500Y215500D03*
G54D71*G36*
X7200Y163800D02*Y157200D01*
X13800D01*
Y163800D01*
X7200D01*
G37*
G54D70*X10500Y150500D03*
Y140500D03*
Y130500D03*
Y120500D03*
Y110500D03*
Y100500D03*
Y90500D03*
G54D71*G36*
X22700Y207300D02*Y200700D01*
X29300D01*
Y207300D01*
X22700D01*
G37*
G54D70*X26000Y194000D03*
G54D71*G36*
X88700Y250300D02*Y241700D01*
X97300D01*
Y250300D01*
X88700D01*
G37*
G54D74*X73000Y246000D03*
G54D71*G36*
X48700Y250300D02*Y241700D01*
X57300D01*
Y250300D01*
X48700D01*
G37*
G54D74*X33000Y246000D03*
G54D70*X75500Y204000D03*
X65500D03*
X55500D03*
X45500D03*
G54D71*G36*
X91700Y207300D02*Y200700D01*
X98300D01*
Y207300D01*
X91700D01*
G37*
M02*
